<?xml version="1.0" encoding="utf-8"?>
<!-- Generator: Adobe Illustrator 21.1.0, SVG Export Plug-In . SVG Version: 6.00 Build 0)  -->
<svg version="1.1" id="Слой_2" xmlns="http://www.w3.org/2000/svg" xmlns:xlink="http://www.w3.org/1999/xlink" x="0px" y="0px"
	 viewBox="0 0 0 0" style="enable-background:new 0 0 0 0;" xml:space="preserve">
<style type="text/css">
	.st0{display:none;stroke:#FFFFFF;stroke-miterlimit:10;}
	.st1{fill:#E68A0C;stroke:#FFFFFF;stroke-miterlimit:10;}
	.st2{fill:#C4670A;stroke:#FFFFFF;stroke-miterlimit:10;}
	.st3{fill:#FFFFFF;}
	.st4{stroke:#FFFFFF;stroke-miterlimit:10;}
	.st5{fill:#E68A0C;}
	.st6{fill:#CC2615;}
	.st7{fill:#D9760B;stroke:#FFFFFF;stroke-miterlimit:10;}
	.st8{fill:#7A7A7A;stroke:#FFFFFF;stroke-miterlimit:10;}
	.st9{fill:#CC1515;}
	.st10{fill:#CC2615;stroke:#FFFFFF;stroke-miterlimit:10;}
	.st11{fill:none;stroke:#000000;stroke-width:4;stroke-miterlimit:10;}
	.st12{fill:#FF8500;stroke:#FFFFFF;stroke-miterlimit:10;}
	.st13{display:none;fill:#FFFFFF;}
</style>
<g>
	<g>
		<g>
			<path class="st4" d="M86.9,79.5l-1.1-14.2c0-2.3-2-3.9-4.4-4l-22.8,0c-2.5,0.1-4.3,1.6-4.4,4l-0.4,28.1l6.3,0.5l1.1-18.1
				l0.4,18.4h17l0.1-19.3l1.3,5.5L86.9,79.5z"/>
			<path class="st2" d="M85.2,98.2H55.8c-1.6,0-2.9-1.3-2.9-2.9v0c0-1.6,1.3-2.9,2.9-2.9h29.5c1.6,0,2.9,1.3,2.9,2.9v0
				C88.1,96.9,86.8,98.2,85.2,98.2z"/>
			<path class="st4" d="M78.4,50.5c0,4.5-2.9,9-8.1,9c-4.9,0-8.1-4.6-8.1-9s3.6-8.1,8.1-8.1S78.4,46,78.4,50.5z"/>
			<path class="st4" d="M75.4,87.3l0.2,0c3.1,0.1,5.6,2.2,5.4,4.6l0,29.5l-10.8,0L70,91.7C69.8,89.2,72.3,87.2,75.4,87.3z"/>
			<path class="st4" d="M64.6,87.4l0.2,0c3.1,0,5.6,2.1,5.4,4.6l0,29.5l-10.7,0l-0.3-29.5C59,89.4,61.5,87.3,64.6,87.4z"/>
		</g>
		<path class="st1" d="M93.7,71.3l-1-7.9c-0.2-1.3-1.3-2.2-2.7-2.1l-1.4,0.2c-1.3,0.2-2.2,1.3-2.1,2.7l0.3,2.4l-9.4,0.8l-0.3-2.1
			c-0.2-1.3-1.3-2.2-2.7-2.1l-1.4,0.2c-1.3,0.2-2.2,1.3-2.1,2.7l1,7.9c0.2,1.3,1.3,2.2,2.7,2.1l1.4-0.2c1.3-0.2,2.2-1.3,2.1-2.7
			L78,71.8l9.4-0.8l0.1,1c0.2,1.3,1.3,2.2,2.7,2.1l1.4-0.2C92.9,73.7,93.8,72.6,93.7,71.3z"/>
		<path class="st4" d="M84,83.2l-0.1,0c-2,0.2-3.8-1.4-3.9-3.4l-1.2-13.6c-0.1-1.4,0.9-2.7,2.3-2.8l1.1-0.1c1.4-0.1,2.6,0.8,2.8,2.2
			l2.1,13.7C87.5,81.2,86,83,84,83.2z"/>
		<g>
			<circle class="st1" cx="53.9" cy="94.6" r="6.3"/>
			<circle class="st3" cx="53.9" cy="94.6" r="1.6"/>
		</g>
	</g>
	<polygon class="st6" points="102.1,92.6 101.9,80.9 106.5,80.9 98.4,73.3 90.5,81.1 95.4,81 95.6,92.8 90.7,92.9 98.9,100.4 
		106.7,92.5 	"/>
</g>
</svg>
