<!DOCTYPE svg PUBLIC "-//W3C//DTD SVG 20010904//EN" "http://www.w3.org/TR/2001/REC-SVG-20010904/DTD/svg10.dtd">
<svg version="1.0" xmlns="http://www.w3.org/2000/svg" viewBox="0 0 6500 5380" preserveAspectRatio="xMidYMid meet">
<g id="layer101" fill="#4a4a4a" stroke="none">
 <path d="M0 2690 l0 -2690 3250 0 3250 0 0 2690 0 2690 -3250 0 -3250 0 0 -2690z"/>
 </g>
<g id="layer103" fill="#f5f5f5" stroke="none">
 <path d="M0 2690 l0 -2690 3250 0 3250 0 0 2690 0 2690 -3250 0 -3250 0 0 -2690z m4279 2512 c31 -15 38 -28 68 -112 44 -127 43 -150 -7 -197 -22 -21 -40 -45 -40 -54 0 -47 116 -307 175 -394 41 -59 55 -122 55 -246 0 -152 16 -232 70 -344 52 -107 82 -205 101 -325 11 -74 22 -110 92 -301 37 -100 57 -210 59 -325 0 -37 7 -85 13 -108 l13 -41 12 30 c7 17 16 93 21 170 7 135 10 145 64 297 30 86 67 208 81 270 35 156 57 226 105 326 57 119 69 175 69 323 0 134 13 202 54 274 72 125 108 202 142 299 l38 109 -40 34 c-34 30 -39 39 -38 76 1 60 43 193 68 216 46 43 133 45 177 5 17 -16 19 -35 19 -238 0 -132 -8 -318 -20 -461 -31 -383 -35 -409 -71 -483 -54 -116 -69 -169 -69 -252 0 -47 -7 -96 -17 -126 -15 -43 -17 -100 -18 -489 l0 -440 -54 -190 c-70 -248 -82 -315 -84 -465 -1 -109 2 -137 25 -220 15 -52 30 -132 34 -177 7 -87 18 -106 28 -50 9 49 58 147 108 215 34 46 47 73 52 112 11 80 43 155 99 228 67 88 180 271 219 352 l31 65 -28 141 c-28 142 -28 174 -1 174 15 0 56 -62 56 -84 0 -8 8 -24 19 -37 l19 -23 20 39 c11 22 28 72 37 110 20 83 38 115 65 115 23 0 34 -31 25 -76 -3 -19 -4 -34 -1 -34 3 0 17 20 32 45 19 33 32 45 49 45 31 0 38 -40 13 -81 l-20 -32 31 26 c63 53 80 7 30 -82 -29 -51 -29 -54 -8 -35 34 30 54 35 76 19 23 -18 26 -14 -124 -173 l-122 -130 -25 -88 c-85 -293 -142 -434 -234 -582 -44 -71 -52 -91 -52 -133 0 -54 -32 -154 -79 -252 -29 -57 -31 -72 -35 -187 -4 -140 -18 -194 -67 -253 -53 -64 -175 -114 -298 -122 -83 -6 -135 -30 -196 -91 -31 -30 -35 -41 -35 -84 0 -27 12 -85 26 -127 24 -71 26 -88 21 -188 -3 -60 -10 -127 -16 -147 -36 -117 -190 -182 -307 -129 -22 10 -57 37 -77 61 -47 56 -60 119 -55 269 4 100 8 124 31 171 42 87 38 114 -30 180 -70 67 -115 90 -180 90 -102 0 -231 50 -291 113 -52 53 -82 152 -82 269 0 85 -4 107 -34 185 -42 109 -76 230 -76 267 0 15 -13 46 -29 69 -91 132 -181 341 -230 529 -45 176 -63 206 -201 343 -66 66 -120 123 -120 127 0 4 9 12 19 18 16 8 28 3 65 -25 25 -19 46 -32 46 -29 0 3 -18 36 -41 74 -22 38 -39 77 -37 87 6 30 40 28 66 -3 l24 -29 -17 33 c-22 45 -17 86 12 90 18 3 28 -8 53 -58 34 -67 46 -74 30 -19 -6 18 -10 46 -10 61 0 24 4 28 30 28 28 0 30 -3 50 -72 43 -149 69 -203 88 -183 5 6 17 33 26 61 21 66 46 90 75 74 23 -12 22 -21 -4 -110 -7 -25 -21 -79 -31 -120 l-17 -75 39 -85 c21 -47 58 -116 82 -155 25 -38 51 -81 60 -95 8 -14 32 -45 53 -70 48 -57 117 -204 126 -266 5 -35 19 -65 51 -109 52 -71 95 -154 112 -214 6 -24 13 -41 15 -39 2 2 9 53 15 113 7 61 23 151 36 200 43 162 28 352 -46 570 -22 66 -52 175 -66 242 -28 132 -28 154 -8 688 5 137 3 160 -20 264 -14 62 -26 138 -26 168 0 38 -9 75 -29 121 -59 135 -80 227 -91 397 -6 88 -15 212 -20 275 -5 63 -12 212 -16 330 -7 223 -5 238 34 283 20 23 96 23 141 -1z m-3120 -21 c20 -21 32 -51 43 -103 9 -40 23 -92 32 -116 15 -40 15 -48 0 -110 -10 -42 -16 -109 -16 -177 0 -106 2 -114 42 -210 22 -55 52 -143 66 -195 26 -94 53 -312 54 -423 0 -38 9 -79 25 -120 16 -38 28 -91 31 -137 4 -43 21 -121 40 -183 19 -59 41 -151 49 -205 9 -53 23 -140 33 -192 9 -53 17 -144 17 -206 l0 -111 43 1 c29 1 41 5 37 14 -16 44 -14 147 5 257 12 66 26 161 32 210 5 50 26 142 46 205 19 63 39 147 43 185 10 84 27 161 44 195 7 14 16 75 19 135 19 292 33 361 120 582 45 116 56 224 32 326 -21 90 -20 140 4 187 11 22 20 55 20 75 0 44 32 110 61 126 31 16 218 2 242 -19 27 -24 20 -60 -27 -131 -30 -45 -58 -107 -87 -194 -42 -125 -43 -130 -30 -185 31 -144 51 -273 57 -371 7 -116 -4 -187 -82 -566 -2 -11 -7 -74 -10 -140 -6 -108 -4 -130 19 -220 35 -141 50 -281 42 -395 -18 -248 -44 -387 -106 -565 -27 -78 -31 -106 -34 -210 -1 -66 -8 -149 -14 -183 -7 -35 -13 -114 -13 -176 -1 -103 2 -116 27 -166 l28 -55 22 72 c22 71 46 118 71 138 6 6 15 32 19 58 16 116 66 213 142 273 105 83 211 203 243 272 17 37 40 84 51 104 11 20 26 72 34 115 15 89 21 106 71 208 37 76 64 96 78 58 6 -14 10 -11 27 16 17 29 24 32 49 27 16 -3 32 -1 35 4 3 6 10 10 15 10 14 0 41 -31 35 -41 -4 -5 3 -9 13 -9 11 0 22 -7 25 -15 8 -21 -21 -103 -55 -152 -15 -23 -28 -44 -28 -47 0 -4 24 -3 53 0 44 5 55 3 60 -10 8 -22 -50 -75 -141 -128 -105 -62 -125 -98 -277 -513 -57 -154 -73 -185 -134 -248 -58 -61 -59 -63 -70 -145 -14 -99 -28 -141 -69 -207 -29 -49 -29 -52 -19 -113 13 -76 0 -169 -34 -236 -37 -75 -136 -126 -243 -126 -69 0 -114 -15 -189 -62 -69 -44 -91 -91 -91 -194 0 -77 2 -83 28 -106 22 -19 30 -35 33 -75 3 -28 1 -58 -4 -68 -6 -10 -6 -37 0 -73 16 -94 -30 -199 -105 -238 -16 -8 -62 -23 -101 -34 -58 -14 -82 -16 -122 -8 -67 13 -77 23 -102 93 -32 88 -37 128 -23 185 9 40 9 54 0 65 -17 21 -4 97 22 131 30 38 36 127 13 210 -20 74 -46 101 -140 146 -48 22 -74 28 -130 28 -56 0 -82 6 -130 29 -33 15 -70 39 -82 52 -55 60 -85 196 -66 299 8 40 5 52 -29 120 -38 74 -58 150 -58 218 0 28 -10 46 -60 99 -69 73 -93 117 -145 263 -57 159 -111 286 -150 350 -19 32 -35 62 -35 66 -1 18 -38 52 -77 73 -60 30 -168 120 -168 139 0 14 10 17 58 16 31 -1 57 0 57 3 0 2 -16 26 -35 54 -52 76 -69 159 -33 159 7 0 18 10 23 22 13 28 29 33 49 13 9 -9 16 -12 16 -6 0 17 35 13 52 -6 9 -10 23 -31 32 -48 l16 -30 -6 27 c-9 42 23 50 50 13 34 -46 84 -177 96 -249 11 -71 37 -146 50 -146 4 0 25 -35 46 -77 38 -78 70 -114 270 -303 47 -44 64 -70 86 -125 14 -39 29 -91 33 -118 4 -28 18 -61 35 -81 15 -19 35 -61 44 -93 31 -105 31 -105 59 -43 36 79 41 145 22 290 -9 69 -18 177 -20 240 -2 97 -7 126 -30 185 -80 206 -108 371 -108 645 -1 194 -3 180 58 390 14 48 14 73 4 190 -6 74 -17 146 -24 160 -7 14 -16 50 -20 80 -4 30 -18 111 -31 180 -29 146 -32 265 -10 365 20 88 56 301 56 328 0 18 -30 99 -88 241 -9 21 -31 59 -49 84 -35 50 -43 101 -20 121 22 18 119 40 180 40 53 1 62 -2 86 -28z"/>
 <path d="M4170 5184 c-33 -13 -40 -38 -40 -138 0 -115 19 -580 26 -612 2 -12 14 -24 27 -28 24 -6 80 -56 105 -94 15 -23 15 -23 43 27 22 38 78 94 106 106 1 1 -31 66 -71 146 -65 129 -75 156 -89 244 -9 59 -11 104 -6 109 5 6 11 -3 15 -22 6 -30 7 -30 30 -16 12 9 26 28 29 44 8 36 -4 102 -17 94 -16 -10 -26 16 -21 55 4 29 0 40 -20 59 -25 24 -88 37 -117 26z"/>
 <path d="M5516 5180 c-49 -15 -68 -39 -64 -85 2 -31 -1 -41 -14 -43 -11 -2 -20 -20 -27 -50 -9 -40 -8 -51 8 -72 23 -31 45 -32 49 -2 7 45 22 20 22 -35 0 -68 -49 -209 -122 -350 -26 -52 -48 -96 -48 -98 0 -2 15 -13 34 -24 19 -12 49 -44 67 -72 l32 -51 36 39 c20 22 51 45 69 52 18 8 34 23 37 35 19 84 42 679 29 728 -3 9 -19 21 -36 27 -35 12 -33 12 -72 1z"/>
 <path d="M4413 4391 c-55 -39 -103 -119 -92 -150 5 -12 22 -80 38 -149 17 -70 39 -154 51 -187 12 -33 26 -80 31 -104 5 -24 11 -46 13 -48 2 -2 20 34 40 80 37 82 37 85 26 143 -6 32 -13 115 -16 184 -5 117 -27 244 -44 255 -4 3 -25 -8 -47 -24z"/>
 <path d="M5298 4403 c-29 -33 -42 -106 -43 -253 -1 -80 -8 -166 -14 -191 -12 -45 -11 -49 25 -125 37 -75 39 -77 46 -48 3 16 21 69 38 119 17 49 42 144 56 210 13 66 26 129 30 140 6 25 -47 107 -92 142 -29 22 -32 22 -46 6z"/>
 <path d="M4160 4351 c0 -15 9 -85 19 -154 16 -100 29 -147 62 -224 37 -85 43 -109 47 -185 4 -87 4 -87 38 -107 38 -23 36 -24 69 62 l24 64 -30 73 c-16 39 -43 137 -59 218 -34 164 -57 214 -115 254 -50 35 -55 34 -55 -1z"/>
 <path d="M5544 4351 c-51 -31 -79 -94 -117 -261 -19 -85 -46 -184 -59 -220 -13 -36 -22 -74 -20 -85 9 -41 44 -125 52 -125 5 0 21 10 36 23 24 21 27 30 25 81 -1 59 26 157 59 211 29 47 48 131 60 255 14 162 17 153 -36 121z"/>
 <path d="M4530 3849 c-8 -23 -28 -62 -44 -88 -28 -41 -31 -54 -30 -121 0 -60 5 -86 27 -132 16 -33 31 -90 37 -135 25 -185 32 -223 62 -307 30 -83 33 -87 40 -60 4 16 13 80 18 142 6 63 19 155 30 205 22 100 19 134 -21 287 -20 79 -89 250 -99 250 -4 0 -13 -19 -20 -41z"/>
 <path d="M5171 3808 c-51 -106 -104 -314 -95 -371 50 -309 64 -399 64 -423 0 -16 4 -24 9 -19 15 17 62 197 77 300 9 55 29 142 46 194 46 141 43 193 -15 309 l-46 92 -40 -82z"/>
 <path d="M4414 3723 c-4 -16 -13 -40 -20 -54 -12 -24 -11 -28 11 -49 l25 -23 0 76 c0 80 -5 96 -16 50z"/>
 <path d="M5331 3666 l-1 -69 25 23 c16 15 21 27 16 34 -5 6 -16 27 -24 46 l-15 35 -1 -69z"/>
 <path d="M4318 3613 c13 -39 15 -83 13 -228 -2 -99 -4 -290 -5 -425 -1 -226 1 -248 19 -285 l20 -40 7 66 c3 37 13 80 22 96 25 49 82 92 147 110 52 14 59 19 54 37 -4 12 -19 62 -35 111 -43 135 -49 164 -60 275 -12 131 -46 206 -126 279 -31 28 -59 51 -64 51 -4 0 -1 -21 8 -47z"/>
 <path d="M5376 3598 c-73 -74 -94 -127 -122 -303 -14 -82 -38 -195 -55 -250 -17 -55 -33 -108 -36 -117 -3 -13 1 -18 16 -18 37 0 127 -40 153 -68 28 -30 43 -71 54 -145 6 -43 8 -46 19 -29 30 42 34 124 23 486 -11 351 -10 377 18 474 10 36 -13 26 -70 -30z"/>
 <path d="M4696 3359 c-11 -64 -26 -185 -36 -279 -6 -52 -13 -107 -16 -122 -6 -28 -5 -28 49 -28 30 0 73 -7 96 -15 38 -13 41 -13 41 3 0 58 -24 197 -45 257 -30 88 -76 209 -80 214 -2 1 -6 -12 -9 -30z"/>
 <path d="M5001 3248 c-49 -130 -55 -152 -59 -242 l-4 -98 33 8 c19 5 63 8 98 7 61 -3 63 -2 57 20 -3 13 -19 115 -36 228 -17 112 -31 208 -33 212 -1 4 -27 -57 -56 -135z"/>
 <path d="M3650 2965 c0 -8 9 -48 20 -87 24 -86 24 -98 6 -98 -14 0 -46 48 -96 143 -13 26 -28 47 -32 47 -9 0 -3 -16 46 -127 20 -45 36 -86 36 -92 0 -29 -30 -3 -74 65 -27 41 -54 77 -58 80 -21 13 -16 -5 11 -42 42 -57 84 -142 76 -154 -8 -12 -34 0 -86 41 -20 16 -38 29 -40 29 -2 0 43 -49 100 -108 l104 -109 36 13 c20 7 53 13 73 14 33 0 38 4 44 28 3 15 10 43 15 62 21 78 40 182 35 188 -7 6 -36 -60 -36 -81 0 -21 -45 -58 -62 -52 -18 7 -59 94 -88 188 -21 66 -30 81 -30 52z"/>
 <path d="M6088 2965 c-3 -6 -15 -45 -26 -88 -19 -74 -64 -167 -81 -167 -19 0 -49 38 -65 82 -30 83 -34 61 -10 -50 13 -59 24 -119 24 -133 0 -23 7 -28 63 -44 34 -9 69 -19 78 -22 10 -3 55 38 128 116 62 67 111 121 108 121 -3 0 -32 -22 -64 -50 -86 -74 -110 -64 -52 20 41 62 72 121 65 128 -7 6 -2 13 -65 -75 -84 -117 -94 -88 -20 59 21 44 39 82 39 85 0 17 -33 -27 -74 -97 -66 -114 -79 -108 -50 20 15 66 16 117 2 95z"/>
 <path d="M4592 2889 c-42 -5 -76 -17 -104 -36 -66 -45 -82 -74 -86 -156 -4 -64 0 -83 31 -162 19 -50 40 -107 47 -129 12 -37 141 -186 162 -186 25 0 119 54 152 87 64 64 69 80 70 253 2 125 -2 166 -16 209 -10 30 -18 66 -18 82 0 21 -6 29 -31 38 -36 12 -113 12 -207 0z"/>
 <path d="M4970 2891 c-16 -4 -28 -17 -33 -36 -5 -17 -17 -57 -28 -90 -15 -47 -19 -89 -19 -196 0 -75 5 -151 11 -170 24 -70 97 -139 180 -169 l36 -13 60 59 c76 75 97 107 112 169 7 28 26 79 43 114 28 58 30 69 25 139 -6 85 -21 111 -83 154 -56 38 -229 60 -304 39z"/>
 <path d="M5366 2561 c-14 -21 -32 -63 -41 -92 -31 -99 -39 -113 -108 -186 -38 -40 -64 -73 -57 -73 8 0 41 5 76 11 l62 11 16 61 c9 34 28 103 42 152 34 122 43 155 38 155 -2 0 -15 -18 -28 -39z"/>
 <path d="M4392 2495 c16 -55 39 -134 50 -175 11 -41 23 -78 27 -82 9 -11 122 -31 129 -24 3 3 -26 39 -65 79 -54 56 -74 84 -82 117 -19 74 -40 123 -65 155 l-24 30 30 -100z"/>
 <path id="backArm1" d="M3747 2550 c-27 -5 -52 -11 -55 -15 -3 -3 0 -20 7 -38 20 -49 56 -164 81 -252 44 -156 133 -348 204 -440 14 -18 15 -18 16 -2 0 9 13 31 30 48 24 26 34 30 57 25 86 -21 83 -22 83 23 0 57 -49 169 -109 250 -84 113 -165 243 -200 321 -31 68 -47 91 -61 89 -3 -1 -27 -5 -53 -9z"/>
 <path id="backArm2" d="M5919 2513 c-6 -21 -29 -67 -51 -103 -21 -36 -55 -92 -75 -125 -20 -33 -58 -89 -86 -124 -27 -35 -62 -91 -77 -125 -28 -61 -52 -160 -42 -171 12 -12 45 -3 61 17 l18 21 33 -23 c18 -13 39 -38 46 -56 8 -19 18 -34 22 -34 25 0 181 342 213 464 30 118 60 208 75 231 20 29 18 32 -33 49 -74 25 -90 22 -104 -21z"/>
 <path d="M4842 2324 c-43 -58 -103 -101 -169 -120 -53 -15 -54 -16 -38 -37 40 -56 65 -123 65 -180 l0 -58 61 43 c53 38 67 43 114 43 48 0 58 -4 113 -47 l61 -47 6 47 c11 81 26 126 56 170 16 24 29 45 29 47 0 2 -24 10 -53 19 -70 20 -136 66 -176 121 -18 25 -33 45 -34 45 -1 -1 -17 -21 -35 -46z"/>
 <path d="M4474 2061 c0 -83 2 -151 2 -151 1 0 22 30 47 68 40 59 46 76 52 138 l6 71 -40 7 c-21 3 -46 8 -54 12 -12 4 -14 -17 -13 -145z"/>
 <path d="M5226 2197 l-49 -10 6 -69 c6 -71 43 -153 86 -192 20 -18 20 -17 23 133 2 97 -1 151 -7 150 -5 -1 -32 -6 -59 -12z"/>
 <path d="M4600 2125 c0 -63 -17 -109 -65 -177 -64 -91 -102 -158 -110 -195 l-6 -32 83 38 c46 21 109 47 141 57 45 14 56 21 51 33 -4 9 -10 57 -14 106 -7 90 -22 136 -60 185 l-20 25 0 -40z"/>
 <path d="M5125 2117 c-25 -39 -45 -120 -45 -185 0 -29 -4 -61 -10 -71 -8 -16 2 -23 78 -57 48 -21 109 -53 136 -71 26 -18 50 -33 53 -33 3 0 2 19 -2 43 -8 49 -39 107 -107 196 -26 35 -53 82 -58 105 -6 23 -14 55 -18 71 l-8 30 -19 -28z"/>
 <path d="M4795 1971 c-27 -16 -60 -40 -73 -54 l-23 -25 21 -41 c21 -42 75 -88 130 -111 28 -11 37 -10 80 10 56 26 94 62 110 104 10 27 8 32 -27 68 -42 43 -107 78 -144 78 -13 0 -46 -13 -74 -29z"/>
 <path d="M5656 1854 c-3 -9 -4 -19 -1 -23 2 -5 -6 -52 -19 -106 -22 -91 -24 -125 -7 -125 16 0 30 43 36 116 4 43 13 93 20 111 7 17 11 34 7 37 -11 11 -30 6 -36 -10z"/>
 <path d="M4074 1839 c4 -13 13 -68 21 -121 7 -54 16 -102 20 -108 10 -16 22 -12 28 9 7 26 -48 234 -64 240 -8 2 -10 -3 -5 -20z"/>
 <path d="M5562 1815 c-66 -55 -162 -271 -165 -369 -1 -46 36 -206 48 -206 5 0 38 13 71 29 71 33 97 64 147 171 41 88 52 123 71 214 13 59 13 74 0 117 -25 83 -36 64 -48 -79 -7 -79 -29 -124 -59 -120 -39 5 -43 47 -18 152 13 52 20 99 17 105 -11 17 -32 13 -64 -14z"/>
 <path d="M4033 1815 c-34 -64 -24 -139 44 -320 47 -123 72 -169 107 -195 40 -29 167 -78 144 -54 -3 3 -2 22 3 42 39 159 39 158 13 253 -32 117 -55 167 -104 234 -36 48 -45 55 -75 55 -42 0 -43 -4 -14 -120 25 -99 18 -140 -24 -140 -19 0 -28 9 -41 43 -9 23 -16 65 -17 92 0 28 -6 68 -13 90 -11 36 -13 38 -23 20z"/>
 <path d="M5032 1790 c-13 -16 -45 -41 -72 -56 l-48 -26 32 -72 c18 -39 56 -108 84 -153 28 -45 54 -93 58 -107 8 -34 31 -33 100 4 75 40 118 47 161 26 l35 -16 -6 27 c-3 16 -11 77 -18 137 l-12 108 -51 38 c-38 29 -225 123 -238 119 -1 0 -12 -13 -25 -29z"/>
 <path d="M4630 1789 c-30 -11 -90 -36 -132 -56 l-77 -36 -6 -46 c-3 -25 -10 -76 -15 -113 -6 -37 -10 -83 -10 -103 0 -32 3 -36 18 -30 56 25 112 15 184 -32 45 -30 68 -27 81 12 6 17 31 64 57 105 25 41 63 107 83 147 l37 71 -55 32 c-31 18 -61 41 -68 51 -14 23 -27 23 -97 -2z"/>
 <path d="M4862 1675 c-12 -15 -24 -36 -28 -48 -4 -12 -38 -77 -76 -144 l-70 -122 -9 -107 c-14 -177 -33 -244 -91 -316 -12 -15 -20 -29 -17 -31 16 -15 273 -81 309 -80 35 0 295 66 308 78 2 2 -13 28 -33 59 -41 65 -72 182 -84 320 -7 88 -11 97 -58 177 -28 46 -69 119 -90 163 l-40 78 -21 -27z"/>
 <path d="M4396 1367 c-14 -14 -28 -46 -35 -76 -25 -119 -9 -164 75 -205 37 -17 72 -45 94 -71 19 -24 40 -43 45 -41 6 1 20 22 32 46 21 43 36 120 47 242 4 56 4 58 -22 64 -15 4 -51 20 -81 35 -68 37 -123 38 -155 6z"/>
 <path d="M5255 1383 c-11 -3 -38 -15 -60 -28 -22 -12 -52 -26 -67 -29 -26 -6 -28 -10 -28 -62 0 -101 45 -267 78 -288 5 -3 26 13 48 35 21 22 67 56 102 76 34 19 67 43 72 53 22 40 3 181 -28 221 -18 21 -79 33 -117 22z"/>
 <path d="M4132 1219 c3 -78 9 -105 31 -151 44 -90 141 -142 288 -153 77 -6 85 -5 96 13 10 17 6 26 -30 65 -23 25 -65 58 -93 72 -64 32 -82 52 -98 106 -12 41 -17 45 -82 71 -37 16 -79 39 -92 51 l-24 22 4 -96z"/>
 <path d="M5599 1285 c-14 -15 -55 -37 -90 -50 -60 -21 -64 -25 -72 -61 -11 -53 -23 -66 -96 -109 -35 -21 -81 -55 -102 -77 -33 -34 -37 -43 -28 -60 10 -19 19 -20 97 -16 211 10 328 130 320 327 l-3 72 -26 -26z"/>
 <path d="M4667 815 c33 -30 73 -76 88 -101 22 -37 31 -45 48 -40 12 3 30 6 40 6 14 0 17 10 17 59 l0 58 -72 21 c-40 11 -98 27 -128 36 l-54 15 61 -54z"/>
 <path d="M5020 834 c-47 -14 -95 -28 -107 -31 -21 -5 -23 -11 -23 -64 l0 -58 37 -10 c44 -12 48 -10 72 37 10 21 44 63 74 95 30 31 50 57 44 56 -7 0 -50 -12 -97 -25z"/>
 <path d="M4730 672 c0 -18 -5 -43 -11 -55 -7 -15 -2 -13 15 8 30 35 30 35 11 61 -14 18 -14 17 -15 -14z"/>
 <path d="M5013 679 c-19 -19 -16 -30 18 -69 23 -26 27 -29 18 -10 -7 14 -15 40 -18 58 -5 27 -8 31 -18 21z"/>
 <path d="M4803 634 c-44 -22 -78 -58 -103 -108 -16 -34 -20 -62 -20 -142 0 -126 11 -163 59 -207 96 -86 261 -63 317 45 8 16 19 75 24 131 8 98 8 104 -16 152 -55 109 -102 145 -186 145 -24 0 -58 -8 -75 -16z"/>
 <path d="M1065 5175 c-5 -1 -43 -9 -82 -16 -87 -15 -92 -27 -38 -103 19 -27 42 -69 51 -95 46 -128 60 -161 67 -161 14 0 86 -72 92 -91 10 -32 35 -23 35 13 0 17 7 70 16 116 15 82 15 87 -4 131 -11 25 -25 73 -31 106 -6 32 -19 67 -28 77 -18 17 -60 30 -78 23z"/>
 <path d="M2092 5164 c-20 -9 -41 -58 -47 -113 -3 -29 -15 -70 -27 -92 -20 -39 -20 -42 -4 -107 9 -37 16 -79 16 -93 0 -14 6 -34 14 -44 13 -18 15 -17 54 16 23 19 42 42 42 52 0 9 6 17 14 17 9 0 26 36 46 100 20 63 46 119 71 154 49 68 50 92 7 99 -57 10 -172 17 -186 11z"/>
 <path d="M1076 4703 c-4 -32 -21 -130 -38 -218 -37 -189 -41 -301 -14 -425 11 -47 22 -89 26 -93 4 -5 10 76 13 180 4 121 11 211 21 253 29 117 56 251 56 279 0 17 -11 38 -29 55 l-29 27 -6 -58z"/>
 <path d="M2107 4716 c-34 -36 -34 -54 3 -200 33 -131 46 -225 57 -426 l7 -135 17 90 c30 152 25 289 -19 510 l-38 190 -27 -29z"/>
 <path d="M2046 4475 c-4 -99 -14 -212 -22 -252 -17 -84 -68 -229 -113 -323 -17 -36 -31 -70 -31 -76 0 -7 17 -15 38 -18 64 -12 70 -16 97 -61 14 -25 31 -45 38 -45 7 1 28 14 47 31 l35 30 3 192 c4 249 -12 397 -68 632 l-16 70 -8 -180z"/>
 <path d="M1138 4520 c-45 -155 -58 -271 -58 -515 0 -193 2 -224 17 -245 52 -75 70 -77 113 -15 24 34 40 47 73 56 23 6 48 13 55 15 9 2 3 23 -22 71 -102 204 -137 360 -149 668 l-2 60 -27 -95z"/>
 <path d="M2020 4547 c0 -2 -18 -48 -41 -102 -50 -123 -86 -271 -94 -390 -3 -49 -8 -108 -11 -130 l-4 -40 30 57 c43 82 97 251 109 343 10 78 20 265 14 265 -2 0 -3 -1 -3 -3z"/>
 <path d="M1200 4495 c0 -89 21 -275 40 -350 10 -39 39 -114 64 -166 41 -82 46 -89 46 -59 -1 160 -49 386 -114 540 l-35 85 -1 -50z"/>
 <path d="M1335 3784 c-6 -2 -9 -35 -7 -79 4 -95 -14 -100 -20 -5 -3 39 -8 73 -11 76 -11 11 -47 -17 -63 -49 -9 -18 -25 -39 -36 -48 -17 -13 -19 -19 -9 -38 12 -21 8 -41 -9 -41 -5 0 -13 15 -20 33 -11 34 -56 94 -64 86 -3 -2 0 -40 6 -84 10 -79 7 -201 -6 -240 -4 -11 9 10 29 48 19 37 41 67 48 67 23 0 38 -17 52 -56 l13 -38 18 30 c34 55 72 93 113 115 36 18 41 25 41 55 0 32 -45 160 -59 168 -3 2 -10 2 -16 0z"/>
 <path d="M1843 3728 c-12 -35 -25 -81 -29 -103 -6 -39 -4 -41 33 -62 39 -22 87 -69 116 -112 l15 -23 18 33 c36 72 57 66 105 -33 22 -46 37 -74 34 -63 -22 65 -28 149 -18 242 6 54 9 100 7 102 -8 9 -47 -36 -61 -72 -10 -24 -19 -35 -25 -29 -6 6 -6 18 2 32 10 18 9 25 -8 40 -11 10 -29 34 -41 54 -21 33 -56 55 -68 42 -3 -3 -8 -40 -12 -83 -6 -67 -9 -74 -18 -53 -6 14 -7 49 -4 82 6 53 1 68 -22 68 -1 0 -12 -28 -24 -62z"/>
 <path d="M1361 3524 c-26 -21 -31 -33 -31 -69 0 -43 36 -304 43 -311 5 -5 35 197 43 287 6 76 0 119 -16 119 -5 0 -22 -12 -39 -26z"/>
 <path d="M1800 3478 c0 -64 34 -305 44 -316 14 -13 53 263 47 335 -1 12 -62 53 -80 53 -7 0 -11 -25 -11 -72z"/>
 <path d="M1141 3418 c-15 -35 -45 -115 -66 -177 l-38 -115 7 -165 c5 -133 9 -168 23 -183 9 -10 19 -18 22 -18 3 0 6 55 7 123 1 159 23 270 79 396 45 102 49 133 23 184 -15 29 -28 19 -57 -45z"/>
 <path d="M2020 3455 c-16 -42 -12 -65 26 -171 20 -54 42 -118 49 -141 20 -63 38 -237 33 -315 -3 -37 -2 -68 2 -68 4 0 14 8 24 19 14 15 18 48 23 182 6 179 4 194 -57 359 -56 153 -80 187 -100 135z"/>
 <path d="M1265 3416 c-56 -95 -123 -287 -139 -399 -27 -185 -18 -263 39 -330 19 -22 39 -55 45 -73 7 -19 16 -34 21 -34 5 0 9 2 9 4 0 3 18 71 40 153 21 81 49 191 60 245 l21 96 -26 140 c-14 77 -25 160 -25 185 0 25 -4 48 -9 52 -6 3 -21 -14 -36 -39z"/>
 <path d="M1916 3438 c-3 -13 -8 -54 -12 -93 -3 -38 -14 -117 -24 -175 l-18 -105 36 -155 c19 -85 47 -195 61 -244 l26 -89 32 49 c18 27 42 61 53 75 50 60 46 297 -6 464 -28 88 -115 278 -132 289 -7 4 -13 -3 -16 -16z"/>
 <path d="M1426 3309 c-29 -193 -126 -624 -162 -719 -16 -44 -28 -230 -14 -230 15 0 136 135 214 240 l86 115 0 93 c0 124 -56 471 -94 580 -12 35 -13 33 -30 -79z"/>
 <path d="M1751 3330 c-13 -47 -27 -119 -32 -160 -4 -41 -17 -120 -29 -175 -23 -107 -28 -243 -11 -288 6 -15 20 -38 32 -50 11 -12 46 -56 77 -97 53 -70 137 -161 172 -187 13 -10 15 1 14 80 0 56 -7 110 -16 137 -9 25 -39 137 -66 250 -47 188 -69 293 -105 500 l-13 75 -23 -85z"/>
 <path d="M255 2915 c4 -16 20 -56 36 -88 34 -67 34 -67 14 -67 -9 0 -34 28 -56 63 -48 72 -43 38 6 -43 32 -54 49 -116 34 -125 -4 -3 -23 2 -43 10 -79 33 -25 -24 77 -82 41 -23 75 -51 85 -68 9 -17 25 -45 35 -63 l19 -32 39 22 c59 33 63 41 40 79 -11 19 -27 72 -36 118 -9 47 -29 116 -44 153 -30 74 -47 100 -36 55 13 -50 11 -62 -9 -62 -14 0 -29 19 -51 63 -32 63 -55 95 -40 57 35 -90 42 -116 34 -121 -16 -9 -29 6 -70 84 -24 46 -37 65 -34 47z"/>
 <path d="M2857 2880 c-15 -26 -27 -55 -27 -64 0 -8 -9 -20 -19 -26 -37 -19 -44 -13 -38 33 l6 42 -25 -55 c-14 -30 -36 -103 -49 -162 -13 -59 -31 -119 -40 -132 -16 -24 -16 -25 26 -56 23 -17 47 -29 53 -27 6 2 21 23 34 48 32 60 44 72 111 107 59 32 117 79 108 88 -3 3 -20 -2 -37 -11 -27 -14 -34 -15 -41 -3 -13 20 3 98 20 98 9 0 44 71 38 76 -2 3 -17 -14 -32 -36 -15 -22 -34 -40 -41 -40 -19 0 -18 13 6 52 10 18 26 54 35 78 14 41 13 43 -1 25 -9 -11 -27 -44 -41 -73 -28 -57 -40 -69 -54 -55 -6 6 1 34 16 72 15 35 25 65 23 67 -2 1 -16 -19 -31 -46z"/>
 <path d="M1066 2707 c9 -60 50 -222 73 -287 39 -112 39 -112 61 -100 18 9 20 21 20 99 0 117 -20 181 -81 257 -64 81 -81 88 -73 31z"/>
 <path d="M2089 2680 c-69 -73 -89 -128 -89 -250 0 -74 3 -90 20 -105 16 -14 21 -15 24 -4 3 8 14 39 25 69 41 115 94 337 82 344 -3 2 -31 -22 -62 -54z"/>
 <path d="M1627 2663 c-4 -3 -7 -116 -7 -250 l0 -243 23 0 c20 0 89 -16 146 -35 l24 -7 -7 68 c-11 110 -44 249 -81 344 -19 49 -35 93 -35 98 0 5 -11 14 -25 20 -30 14 -30 14 -38 5z"/>
 <path d="M1528 2640 c-48 -38 -123 -277 -142 -454 -6 -53 -5 -58 11 -51 46 17 145 35 168 29 l25 -6 0 251 c0 238 -1 251 -19 251 -10 0 -30 -9 -43 -20z"/>
 <path d="M1751 2539 c26 -67 57 -201 74 -319 17 -115 45 -260 54 -278 3 -8 23 -20 45 -27 21 -7 48 -23 61 -35 l22 -21 12 88 c7 48 15 142 17 208 l5 120 -81 65 c-50 40 -108 100 -152 158 -39 50 -72 92 -73 92 -2 0 6 -23 16 -51z"/>
 <path d="M1381 2455 c-18 -25 -63 -69 -99 -99 -110 -88 -106 -79 -99 -208 3 -62 11 -148 17 -190 l12 -77 21 19 c11 11 34 24 52 30 31 10 31 10 59 158 15 81 39 205 52 276 14 71 23 130 21 132 -2 2 -18 -16 -36 -41z"/>
 <path id="frontArm1" d="M2618 2423 c-37 -86 -110 -168 -267 -301 -55 -47 -91 -112 -116 -206 -8 -33 -14 -60 -12 -62 1 -1 40 13 86 32 46 19 87 34 92 34 11 0 29 -67 29 -107 0 -18 4 -33 9 -33 15 0 89 93 115 146 26 53 176 454 175 470 0 5 -20 24 -45 42 l-45 32 -21 -47z"/>
 <path id="frontArm2" d="M525 2429 c-21 -17 -41 -31 -43 -33 -1 -2 4 -19 12 -37 17 -39 112 -283 146 -378 25 -67 96 -173 129 -190 19 -10 20 -7 27 48 10 90 10 90 108 49 47 -20 87 -34 90 -31 8 8 -24 124 -48 171 -25 48 -73 98 -160 168 -59 47 -157 167 -182 223 -10 23 -23 41 -28 40 -6 0 -29 -14 -51 -30z"/>
 <path d="M1456 2120 c-80 -21 -85 -25 -97 -76 -19 -83 -24 -79 111 -79 l120 0 0 81 c0 76 -2 82 -22 88 -31 8 -33 8 -112 -14z"/>
 <path d="M1633 2133 c-9 -3 -13 -30 -13 -86 l0 -82 113 0 113 0 -7 50 c-12 87 -9 85 -139 114 -50 12 -50 12 -67 4z"/>
 <path d="M1378 1936 l-33 -11 0 -87 c0 -47 3 -89 6 -92 3 -3 20 -1 38 4 23 6 56 5 110 -5 42 -8 79 -15 84 -15 4 0 7 45 7 100 0 95 -1 100 -22 105 -49 10 -158 11 -190 1z"/>
 <path d="M1620 1834 l0 -106 27 7 c81 20 132 25 157 15 15 -5 32 -10 37 -10 5 0 9 42 9 94 0 76 -3 95 -16 100 -9 3 -60 6 -115 6 l-99 0 0 -106z"/>
 <path d="M1273 1905 c-41 -18 -51 -39 -63 -131 -7 -53 -19 -94 -42 -137 -29 -54 -33 -69 -30 -126 1 -36 4 -66 6 -68 2 -2 28 8 58 21 30 13 73 29 95 35 l40 11 -8 47 c-4 27 -8 119 -8 206 -1 86 -4 157 -8 157 -5 -1 -22 -7 -40 -15z"/>
 <path d="M1877 1822 c-3 -48 -5 -116 -6 -152 -1 -36 -4 -86 -7 -111 l-5 -45 52 -12 c29 -7 78 -26 110 -42 l58 -29 7 66 c6 63 5 71 -29 137 -20 40 -38 95 -42 126 -10 76 -36 115 -89 133 l-44 15 -5 -86z"/>
 <path id="biceps1" d="M815 1797 c-4 -55 -3 -122 4 -162 11 -77 56 -173 86 -189 11 -6 45 -28 77 -48 31 -21 60 -38 64 -38 4 0 23 12 42 26 l35 27 -7 86 c-11 140 -60 282 -108 313 -20 13 -172 78 -183 78 -2 0 -6 -42 -10 -93z"/>
 <path id="biceps2" d="M2293 1849 c-72 -32 -97 -49 -113 -74 -32 -52 -66 -181 -74 -277 l-6 -87 33 -25 c19 -15 37 -26 41 -26 4 0 22 11 40 25 18 14 53 35 77 48 83 43 129 191 114 370 -4 48 -10 87 -13 87 -4 0 -49 -19 -99 -41z"/>
 <path d="M1380 1717 c-14 -6 -27 -15 -30 -18 -3 -4 -3 -46 1 -94 6 -97 11 -105 74 -105 22 0 66 -6 97 -14 32 -7 60 -11 63 -8 3 3 5 53 5 112 l0 106 -82 17 c-95 20 -95 20 -128 4z"/>
 <path d="M1683 1713 l-63 -15 0 -114 c0 -65 4 -114 10 -114 5 0 35 7 67 15 31 8 71 15 89 15 17 0 36 6 42 13 5 6 13 51 17 100 l7 87 -36 15 c-41 18 -51 17 -133 -2z"/>
 <path d="M1255 1459 c-59 -26 -157 -90 -162 -106 -6 -17 139 -223 179 -256 72 -58 166 -40 247 48 40 43 42 51 57 210 5 54 3 73 -7 81 -28 22 -86 35 -174 40 -78 4 -97 2 -140 -17z"/>
 <path d="M1732 1465 c-95 -21 -95 -21 -88 -145 4 -58 12 -117 18 -132 11 -30 96 -100 141 -117 93 -36 158 14 290 222 l37 58 -27 24 c-16 14 -63 43 -107 65 -67 34 -87 40 -140 39 -33 0 -90 -7 -124 -14z"/>
 <path d="M1600 1388 c-1 -110 -17 -209 -37 -237 -33 -44 -115 -101 -171 -117 -30 -9 -51 -18 -48 -21 8 -8 121 16 169 36 55 23 137 27 174 8 40 -21 151 -49 177 -44 15 2 9 7 -24 16 -76 22 -167 88 -195 141 -8 16 -17 78 -21 153 -7 131 -24 174 -24 65z"/>
 <path d="M906 1379 c-11 -58 -6 -166 11 -219 34 -106 124 -154 282 -152 68 1 99 5 109 16 13 12 11 16 -16 30 -40 21 -97 87 -168 196 -42 63 -65 90 -79 90 -11 0 -42 16 -69 35 -27 19 -53 35 -57 35 -3 0 -9 -14 -13 -31z"/>
 <path d="M2248 1375 c-26 -19 -58 -35 -70 -35 -18 0 -37 -21 -83 -93 -72 -111 -146 -193 -183 -202 -25 -6 -26 -8 -9 -20 26 -19 145 -28 203 -15 27 6 73 23 102 37 43 22 59 37 78 75 37 72 47 140 33 221 -6 37 -14 67 -17 67 -4 0 -28 -16 -54 -35z"/>
 <path id="nack" d="M1545 976 c-29 -63 -75 -199 -75 -220 0 -4 15 1 33 11 22 12 54 18 107 18 53 0 85 -6 108 -18 26 -15 32 -15 32 -3 0 21 -57 185 -73 210 -8 11 -17 33 -21 49 -5 23 -11 27 -42 27 -34 0 -36 -2 -69 -74z"/>
 <path d="M1680 1020 c0 -5 11 -30 25 -56 14 -26 32 -71 42 -100 l17 -54 25 52 c20 42 37 60 79 84 l53 32 -73 7 c-40 4 -94 15 -120 25 -27 10 -48 14 -48 10z"/>
 <path d="M1470 1004 c-25 -7 -73 -17 -107 -20 l-63 -7 53 -31 c41 -24 58 -43 78 -83 l25 -53 16 48 c9 26 27 73 42 105 28 63 27 64 -44 41z"/>
 <path d="M1567 760 c-60 -11 -89 -39 -102 -96 -6 -27 -21 -63 -33 -79 -30 -42 -39 -85 -18 -85 24 0 36 -43 30 -108 -4 -46 -1 -63 14 -88 19 -30 21 -30 82 -26 40 3 84 -1 126 -13 88 -24 104 -7 117 125 8 70 18 100 34 100 24 0 10 74 -21 111 -14 17 -26 43 -26 58 0 27 -35 69 -75 88 -31 16 -86 21 -128 13z"/>
 <path d="M1808 424 c-5 -4 -8 -23 -8 -41 0 -52 -20 -120 -41 -139 -18 -16 -23 -16 -98 1 -49 11 -98 16 -127 12 -75 -8 -101 15 -115 103 -7 38 -7 34 -6 -25 2 -61 7 -76 34 -116 36 -53 44 -57 118 -65 109 -13 220 51 245 140 12 44 10 143 -2 130z"/>
 </g>

</svg>