<!DOCTYPE svg PUBLIC "-//W3C//DTD SVG 20010904//EN" "http://www.w3.org/TR/2001/REC-SVG-20010904/DTD/svg10.dtd">
<svg version="1.0" xmlns="http://www.w3.org/2000/svg" viewBox="0 0 6500 5800" preserveAspectRatio="xMidYMid meet">
<g id="layer101" fill="#282828" stroke="none">
 <path d="M0 2900 l0 -2900 3250 0 3250 0 0 2900 0 2900 -3250 0 -3250 0 0 -2900z"/>
 </g>
<g id="layer103" fill="#a1a1a1" stroke="none">
 <path d="M0 2900 l0 -2900 3250 0 3250 0 0 2900 0 2900 -3250 0 -3250 0 0 -2900z m4626 2785 c27 -11 41 -27 64 -77 34 -72 36 -94 14 -244 -18 -128 -16 -144 41 -374 69 -278 83 -365 89 -570 3 -102 11 -228 16 -280 6 -52 15 -198 20 -325 11 -272 29 -368 105 -555 12 -30 25 -64 30 -75 6 -17 10 -14 27 25 37 82 88 243 103 324 9 48 18 164 20 281 3 110 14 312 25 449 11 137 20 273 20 302 0 65 26 199 86 443 42 172 45 193 40 276 -18 289 -19 265 11 325 36 71 85 99 143 81 64 -19 90 -46 90 -94 0 -23 7 -69 15 -102 17 -76 9 -119 -35 -174 l-33 -40 7 -123 c4 -68 11 -156 17 -197 5 -40 14 -121 19 -180 6 -58 15 -148 20 -199 9 -91 -3 -211 -30 -297 -5 -16 -14 -66 -18 -111 -9 -79 -8 -92 27 -334 32 -215 30 -522 -4 -870 -21 -202 -35 -264 -90 -385 -7 -16 -29 -64 -47 -105 -53 -117 -61 -157 -55 -273 7 -146 96 -570 110 -527 2 8 10 60 16 114 15 128 33 199 76 290 29 60 35 84 35 139 0 36 7 98 15 138 26 124 112 364 190 530 l75 159 -21 102 c-12 57 -27 117 -34 134 -7 17 -9 37 -5 44 14 22 55 -13 68 -59 25 -81 47 -65 86 60 27 90 48 121 68 101 8 -8 8 -26 -1 -67 -7 -31 -11 -59 -8 -62 3 -2 20 24 39 59 33 63 60 83 72 53 3 -9 -1 -30 -10 -47 -19 -36 -14 -45 10 -19 10 11 24 17 32 14 24 -9 16 -47 -21 -98 -19 -27 -33 -51 -31 -53 2 -2 22 9 45 23 40 27 61 27 61 0 0 -8 -24 -33 -53 -57 -29 -24 -79 -73 -110 -111 -64 -77 -89 -143 -107 -292 -39 -311 -70 -447 -135 -581 -25 -52 -42 -100 -39 -111 3 -10 1 -96 -5 -190 -8 -129 -15 -183 -31 -224 -17 -47 -19 -61 -9 -106 13 -65 -1 -149 -35 -208 -45 -76 -92 -108 -247 -169 -163 -63 -234 -106 -260 -155 l-18 -34 40 -79 c52 -104 80 -237 80 -376 0 -57 -5 -120 -11 -141 -20 -76 -103 -175 -159 -191 -51 -14 -239 -1 -274 19 -33 19 -109 115 -142 181 -79 157 -130 370 -156 650 l-12 135 -68 28 c-116 48 -183 134 -195 253 -4 32 -2 76 4 96 8 31 7 47 -10 90 -20 54 -37 220 -38 379 0 69 -4 85 -45 171 -50 105 -83 238 -109 433 -32 237 -47 309 -71 351 -24 41 -181 204 -196 204 -5 0 -9 11 -9 25 0 31 8 31 55 0 20 -15 39 -24 41 -22 3 2 -11 28 -31 57 -19 28 -35 58 -35 66 0 26 30 27 56 3 l25 -23 -18 47 c-12 32 -14 50 -7 57 19 19 40 0 72 -66 18 -37 35 -64 38 -61 3 3 -2 30 -11 61 -13 45 -14 60 -5 71 7 8 16 15 21 15 13 0 36 -50 54 -120 28 -112 63 -138 79 -60 7 38 53 87 68 72 7 -7 5 -25 -5 -59 -23 -71 -47 -187 -47 -225 0 -20 24 -82 60 -156 66 -136 161 -402 185 -517 8 -41 15 -108 15 -149 0 -41 4 -77 9 -80 18 -12 63 -111 80 -180 10 -39 25 -117 32 -173 7 -57 16 -103 19 -103 16 0 100 421 107 536 6 106 0 131 -87 329 -32 72 -65 159 -74 195 -51 203 -77 857 -43 1070 42 252 43 287 18 432 -44 254 -45 265 -32 372 20 167 39 352 52 512 l12 151 -35 46 c-41 54 -53 101 -39 154 5 21 12 66 16 101 7 67 20 86 70 108 39 17 58 17 101 -1z m-3582 -25 c44 -16 56 -49 62 -161 2 -57 6 -105 9 -107 2 -2 -4 -27 -12 -55 -23 -77 -11 -158 51 -353 30 -93 59 -191 66 -219 6 -27 14 -169 17 -315 4 -203 9 -272 20 -293 8 -16 21 -61 28 -100 17 -87 45 -220 80 -381 42 -195 58 -370 51 -540 -6 -139 -5 -148 12 -140 22 10 62 10 85 0 16 -8 17 4 17 177 0 108 6 233 15 299 17 128 128 656 144 686 6 11 13 121 16 258 7 267 22 387 66 509 61 167 81 260 74 343 -11 138 -5 333 12 358 23 36 73 47 171 39 147 -12 159 -50 58 -175 -52 -64 -66 -88 -72 -127 -10 -67 4 -351 22 -458 25 -144 29 -307 11 -442 -9 -65 -19 -154 -23 -198 -3 -44 -20 -122 -36 -175 -26 -80 -30 -113 -32 -210 0 -63 5 -162 12 -220 7 -58 20 -166 29 -240 22 -178 21 -553 -3 -667 -8 -43 -43 -148 -76 -233 -33 -85 -67 -173 -75 -195 -36 -96 -28 -218 29 -423 l32 -113 26 73 c26 74 59 137 83 157 10 7 12 27 9 64 -3 39 3 77 23 143 25 85 53 143 234 482 62 117 85 171 97 230 26 128 87 287 109 284 6 -1 12 -17 15 -37 l5 -35 29 56 c29 56 52 76 65 57 3 -6 17 -10 31 -9 21 1 25 -3 22 -23 -2 -19 0 -21 12 -12 10 9 16 8 26 -4 10 -13 7 -27 -19 -85 -42 -95 -41 -100 15 -100 37 0 45 -3 42 -17 -2 -9 -22 -26 -44 -38 -56 -30 -161 -111 -178 -138 -15 -24 -107 -333 -131 -442 -23 -101 -61 -206 -109 -305 -39 -78 -43 -95 -50 -190 -4 -65 -15 -125 -28 -160 -12 -33 -23 -94 -27 -155 -9 -127 -33 -200 -89 -271 -54 -69 -96 -89 -169 -80 -29 3 -54 2 -58 -4 -3 -5 -20 -71 -37 -147 -29 -130 -31 -151 -33 -370 l-1 -231 -33 -66 c-33 -68 -63 -99 -138 -143 -58 -34 -176 -41 -238 -14 -106 47 -147 130 -181 364 -22 154 -23 181 -13 283 10 107 0 307 -17 323 -3 3 -42 6 -87 7 -114 0 -112 0 -157 40 -80 73 -120 172 -121 303 0 61 -6 95 -19 121 -21 41 -40 154 -40 234 0 47 -9 74 -55 171 -34 69 -68 161 -86 232 -63 238 -132 469 -148 496 -16 29 -124 113 -183 143 -62 32 -59 54 8 54 52 0 52 -1 3 109 -21 47 -26 67 -18 77 6 7 17 10 25 7 11 -4 15 0 12 13 -2 13 4 20 20 22 13 2 22 -2 22 -9 0 -7 6 -5 13 6 18 24 31 15 67 -48 29 -51 30 -52 30 -20 0 34 15 52 31 36 17 -17 76 -187 94 -269 21 -96 31 -117 195 -414 114 -208 161 -332 165 -437 2 -52 8 -79 23 -100 31 -44 69 -124 82 -173 l12 -45 29 100 c66 226 72 350 23 469 -69 168 -124 320 -140 391 -26 110 -27 526 -2 725 48 387 49 488 4 619 -17 48 -30 115 -37 190 -5 64 -16 161 -24 215 -20 133 -19 208 5 352 38 234 47 489 20 559 -5 11 -35 54 -69 95 -63 78 -71 101 -46 137 12 17 28 23 68 26 108 7 146 7 171 -3z"/>
 <path d="M4520 5662 c-29 -16 -36 -27 -42 -63 -4 -24 -12 -74 -19 -110 -13 -75 -3 -124 33 -155 16 -14 20 -15 16 -4 -16 45 -18 59 -10 64 12 7 32 -71 32 -126 0 -24 -9 -135 -20 -248 -11 -113 -22 -224 -24 -248 l-4 -44 19 31 c28 46 53 56 101 37 39 -16 40 -16 70 9 35 29 54 31 80 8 10 -9 18 -11 18 -6 0 6 -20 92 -45 191 -49 198 -53 244 -33 423 11 96 10 111 -6 153 -36 95 -96 127 -166 88z"/>
 <path d="M5408 5669 c-19 -7 -35 -27 -54 -67 -25 -52 -26 -62 -20 -147 19 -276 21 -244 -28 -443 -25 -101 -46 -187 -46 -192 0 -4 13 -3 29 3 26 9 34 7 64 -16 34 -26 36 -26 72 -11 45 19 71 11 97 -29 l20 -32 -6 75 c-3 41 -13 145 -21 230 -19 194 -19 296 1 335 l14 30 -5 -45 -5 -45 24 29 c32 38 36 76 20 164 -8 41 -14 87 -14 103 0 23 -7 32 -40 49 -43 22 -61 23 -102 9z"/>
 <path d="M4678 4789 l-28 -21 0 -224 c0 -182 3 -224 14 -224 25 0 79 45 113 94 30 44 33 55 33 121 0 92 -13 162 -42 222 -26 55 -49 63 -90 32z"/>
 <path d="M5282 4797 c-36 -44 -55 -115 -60 -229 l-4 -117 35 -49 c35 -46 99 -93 112 -80 4 4 9 104 12 223 l6 217 -29 24 c-33 26 -56 30 -72 11z"/>
 <path d="M4538 4778 c-9 -7 -29 -42 -44 -78 -35 -83 -44 -223 -20 -315 8 -33 18 -86 22 -118 4 -32 15 -68 25 -80 l17 -22 12 30 c7 17 29 73 49 125 l36 95 -3 173 -3 172 -29 15 c-35 18 -42 18 -62 3z"/>
 <path d="M5429 4779 l-26 -10 -6 -180 c-6 -197 -4 -205 60 -357 23 -55 28 -61 41 -48 8 8 21 45 28 83 7 37 21 100 30 138 22 95 13 211 -22 291 -40 92 -53 102 -105 83z"/>
 <path d="M4754 4363 c-39 -41 -57 -53 -81 -53 -29 0 -30 -2 -37 -52 -13 -113 -7 -282 14 -363 11 -44 20 -111 20 -154 0 -42 5 -105 10 -141 11 -71 51 -232 56 -227 2 2 11 41 20 88 8 46 31 147 50 223 30 125 34 154 34 275 -1 132 -22 447 -31 454 -2 2 -27 -21 -55 -50z"/>
 <path d="M5207 4387 c-3 -17 -11 -127 -18 -244 -15 -248 -9 -322 44 -543 19 -80 38 -162 42 -184 3 -21 10 -35 15 -30 18 20 51 201 60 335 5 81 17 168 27 199 18 59 23 224 9 333 -7 56 -8 57 -39 57 -25 0 -42 11 -83 55 l-52 54 -5 -32z"/>
 <path d="M4582 4229 l-32 -80 27 -52 28 -52 7 129 c4 72 6 131 5 133 -2 1 -18 -34 -35 -78z"/>
 <path d="M5407 4183 c3 -70 7 -130 9 -131 1 -2 14 19 29 48 l26 52 -32 76 c-17 42 -33 78 -34 80 -2 2 -1 -54 2 -125z"/>
 <path d="M4520 4110 c0 -30 -9 -109 -19 -175 -40 -252 -46 -369 -33 -626 8 -169 16 -247 26 -267 l14 -27 7 30 c20 96 28 122 51 166 24 48 88 101 140 115 21 5 21 7 7 52 -33 108 -55 235 -63 362 -9 149 -31 235 -94 358 l-35 67 -1 -55z"/>
 <path d="M5458 4083 c-62 -132 -80 -203 -88 -352 -8 -125 -34 -278 -60 -345 -16 -44 -13 -51 40 -76 27 -13 63 -36 79 -52 34 -34 70 -120 78 -190 3 -27 9 -48 14 -48 18 0 29 80 39 295 13 258 11 293 -31 594 -16 118 -27 222 -24 232 4 11 2 19 -2 19 -5 0 -25 -35 -45 -77z"/>
 <path d="M4812 3630 c-29 -122 -62 -274 -62 -286 0 -2 24 -4 53 -4 29 0 70 -9 94 -19 l41 -19 -24 70 c-29 85 -54 212 -55 282 -3 123 -13 118 -47 -24z"/>
 <path d="M5177 3734 c-4 -4 -7 -31 -7 -60 0 -65 -31 -228 -59 -308 -12 -33 -21 -61 -21 -63 0 -2 18 6 40 17 24 12 59 20 90 20 l51 0 -6 38 c-5 29 -69 319 -78 355 -1 5 -6 5 -10 1z"/>
 <path d="M6013 3395 c-6 -16 -22 -63 -35 -104 -13 -41 -31 -79 -40 -85 -25 -15 -50 3 -61 45 -5 19 -15 41 -23 49 -17 17 -18 3 -3 -37 6 -15 19 -70 29 -121 l18 -94 -24 -54 c-13 -30 -24 -57 -24 -60 0 -6 81 -43 96 -44 6 0 18 26 28 58 21 66 60 118 165 221 70 68 64 74 -16 14 -30 -22 -33 -23 -33 -5 0 10 20 50 44 88 25 37 42 72 40 76 -9 14 -21 0 -60 -62 -34 -55 -54 -74 -54 -51 0 5 16 47 35 92 19 45 33 85 30 87 -7 7 -9 5 -44 -63 -41 -81 -58 -102 -72 -88 -7 7 -5 29 6 73 18 70 17 114 -2 65z"/>
 <path d="M4004 3390 c20 -80 29 -140 22 -147 -11 -11 -51 41 -82 107 -41 84 -40 41 0 -54 20 -46 36 -86 36 -90 0 -20 -21 2 -58 59 -23 36 -46 65 -52 65 -16 0 -12 -12 21 -60 74 -110 74 -138 0 -85 -27 19 -51 35 -55 35 -4 0 35 -42 87 -92 90 -89 126 -141 141 -200 5 -23 12 -28 35 -28 16 0 39 8 52 18 22 19 22 19 5 63 -13 32 -16 57 -11 94 6 50 36 173 50 208 4 9 3 17 -3 17 -6 0 -18 -21 -28 -47 -9 -27 -23 -55 -31 -63 -23 -25 -59 24 -86 118 -14 46 -30 89 -37 95 -10 10 -11 7 -6 -13z"/>
 <path d="M4685 3296 c-27 -13 -60 -34 -72 -47 -33 -36 -63 -111 -77 -195 l-14 -76 40 -99 c32 -79 52 -111 101 -165 l61 -66 60 4 c83 7 151 41 184 91 26 40 27 44 30 225 l3 185 -30 61 c-39 80 -81 106 -172 106 -46 0 -78 -7 -114 -24z"/>
 <path d="M5127 3300 c-30 -17 -46 -36 -70 -88 -31 -66 -32 -70 -35 -232 -2 -164 -2 -165 25 -215 43 -76 114 -115 213 -115 42 0 48 4 102 61 44 47 66 83 98 160 39 91 42 104 35 156 -25 201 -97 282 -255 290 -62 3 -82 0 -113 -17z"/>
 <path d="M4495 2915 c4 -44 17 -118 29 -165 l21 -85 73 -14 c77 -14 99 -10 66 14 -43 29 -106 126 -144 220 -22 54 -43 101 -46 104 -3 3 -3 -30 1 -74z"/>
 <path d="M5527 2983 c-3 -5 -17 -38 -30 -74 -39 -103 -65 -148 -120 -206 -27 -29 -48 -56 -45 -59 9 -9 142 17 150 29 12 20 37 139 47 228 9 82 9 99 -2 82z"/>
 <path d="M5807 2853 c-57 -114 -138 -342 -171 -483 -17 -70 -21 -210 -7 -210 5 0 14 7 21 15 16 19 25 19 46 -2 9 -9 24 -18 33 -19 9 -1 23 -4 31 -8 19 -8 48 39 85 139 32 84 49 165 80 375 32 215 33 206 -12 220 -21 7 -46 19 -55 27 -15 14 -20 9 -51 -54z"/>
 <path d="M4150 2894 c-14 -7 -38 -14 -54 -14 -24 0 -27 -3 -23 -22 4 -13 15 -90 26 -173 37 -274 60 -364 125 -494 21 -41 31 -51 44 -46 28 11 65 17 105 16 l38 -1 -7 83 c-8 105 -40 229 -98 389 -48 132 -114 279 -125 277 -3 -1 -17 -7 -31 -15z"/>
 <path d="M5000 2765 c0 -8 -16 -33 -36 -55 -39 -43 -122 -80 -179 -80 -40 0 -44 -9 -14 -36 12 -10 33 -39 48 -64 22 -38 27 -61 31 -143 l5 -97 35 47 c43 58 93 93 133 93 40 0 90 -39 124 -98 l28 -47 5 105 c6 110 9 121 59 184 38 48 39 56 4 56 -76 1 -166 49 -203 109 -26 42 -40 51 -40 26z"/>
 <path d="M4561 2633 c2 -5 24 -55 49 -111 32 -74 47 -98 56 -91 13 11 49 107 59 155 l6 31 -61 6 c-33 4 -72 10 -87 13 -15 4 -24 3 -22 -3z"/>
 <path d="M5366 2627 l-68 -10 6 -41 c4 -23 20 -68 35 -101 l28 -60 27 58 c79 172 77 167 58 165 -9 0 -48 -6 -86 -11z"/>
 <path d="M4736 2552 c-3 -21 -20 -66 -37 -100 -29 -59 -30 -64 -19 -114 7 -29 10 -86 8 -126 -1 -39 -1 -72 2 -71 3 0 36 24 74 52 l70 53 -3 114 c-2 89 -7 122 -22 149 -19 36 -53 81 -62 81 -2 0 -7 -17 -11 -38z"/>
 <path d="M5242 2547 c-40 -57 -50 -103 -48 -220 l1 -98 70 -44 70 -44 6 107 c4 59 10 117 14 129 5 15 1 31 -12 50 -24 35 -53 107 -53 133 0 35 -19 31 -48 -13z"/>
 <path d="M4970 2398 c-46 -31 -110 -117 -110 -148 0 -26 82 -112 133 -139 25 -14 30 -12 84 31 32 25 67 61 78 81 19 35 19 35 0 72 -31 59 -87 115 -120 121 -22 4 -40 -1 -65 -18z"/>
 <path d="M4757 2174 c-43 -31 -79 -66 -82 -78 -3 -11 -19 -89 -35 -172 -16 -83 -32 -158 -36 -167 -5 -15 1 -17 45 -17 29 0 68 -7 88 -15 46 -19 53 -19 53 4 0 32 68 153 127 228 32 39 63 85 70 102 10 28 9 32 -10 43 -39 20 -103 77 -117 103 -7 14 -16 25 -19 25 -4 0 -41 -25 -84 -56z"/>
 <path d="M5160 2193 c-12 -15 -45 -45 -73 -66 -29 -22 -53 -40 -55 -42 -8 -7 34 -74 83 -135 55 -68 115 -171 115 -199 0 -35 13 -41 55 -26 22 8 63 14 92 15 l52 0 -9 31 c-8 27 -21 88 -61 296 -10 50 -12 53 -82 96 -40 24 -77 47 -84 51 -6 3 -21 -6 -33 -21z"/>
 <path d="M5655 2080 c0 -62 4 -90 12 -90 13 0 21 35 24 105 2 70 1 75 -18 75 -16 0 -18 -11 -18 -90z"/>
 <path d="M4339 2153 c-3 -19 3 -129 7 -145 3 -10 10 -18 15 -18 15 0 7 162 -8 168 -7 2 -14 0 -14 -5z"/>
 <path d="M4278 2123 c-10 -12 -13 -59 -12 -187 1 -260 31 -338 141 -365 26 -7 63 -16 80 -21 23 -5 35 -4 40 3 5 7 7 57 6 112 -4 137 -43 322 -86 405 -47 90 -63 87 -59 -11 3 -85 -10 -110 -43 -86 -13 10 -19 32 -23 85 -5 74 -19 95 -44 65z"/>
 <path d="M5596 2098 c-41 -70 -57 -116 -78 -227 -20 -104 -29 -281 -16 -312 6 -15 12 -15 78 2 77 19 112 37 134 72 27 41 44 131 51 282 6 127 5 157 -9 189 -18 43 -40 44 -44 0 -9 -112 -25 -150 -57 -138 -12 5 -15 25 -15 90 0 47 -4 84 -10 84 -5 0 -20 -19 -34 -42z"/>
 <path d="M4996 2038 c-9 -18 -39 -62 -67 -97 -28 -35 -66 -91 -84 -125 -32 -62 -40 -96 -70 -301 -21 -137 -45 -216 -89 -281 l-35 -51 87 -7 c48 -4 129 -16 181 -27 95 -19 96 -19 196 1 55 11 136 23 181 26 l81 7 -33 48 c-51 76 -72 145 -99 331 -29 197 -56 269 -139 371 -26 31 -58 76 -71 98 l-23 41 -16 -34z"/>
 <path d="M4595 1709 c-18 -27 -55 -169 -55 -207 0 -60 12 -78 78 -111 32 -16 64 -36 71 -45 20 -24 27 -20 39 22 9 31 52 287 52 313 0 28 -169 54 -185 28z"/>
 <path d="M5283 1704 c-18 -9 -33 -23 -33 -30 0 -38 33 -246 47 -297 l16 -58 26 24 c14 14 50 37 79 51 81 41 90 90 43 236 l-27 85 -60 2 c-39 2 -70 -3 -91 -13z"/>
 <path d="M4306 1578 c-11 -43 -6 -123 11 -172 30 -84 83 -131 204 -180 l107 -44 19 26 c11 15 27 41 36 58 16 30 15 33 -5 59 -12 15 -45 38 -73 50 -64 29 -75 42 -83 102 l-7 48 -82 20 c-45 12 -91 29 -101 39 -19 16 -20 16 -26 -6z"/>
 <path d="M5675 1573 c-16 -9 -59 -23 -95 -32 -50 -12 -66 -20 -68 -36 -15 -86 -20 -94 -92 -130 -62 -31 -90 -57 -90 -83 0 -17 62 -102 75 -102 24 0 190 72 222 96 67 51 110 165 98 256 -4 27 -10 48 -13 48 -4 -1 -20 -8 -37 -17z"/>
 <path d="M4616 1160 c26 -54 109 -152 200 -238 58 -54 102 -102 97 -105 -5 -3 -26 10 -47 29 l-38 35 6 -28 c4 -15 9 -36 12 -45 3 -10 1 -18 -4 -18 -6 0 -15 23 -22 50 -7 28 -16 53 -21 56 -5 3 -6 -2 -3 -10 3 -9 1 -16 -5 -16 -5 0 -15 17 -21 38 -5 22 -19 47 -31 58 -11 10 -43 49 -71 86 -27 37 -52 68 -55 68 -7 0 38 -71 74 -116 35 -43 46 -77 18 -54 -18 15 -18 13 -6 -26 21 -66 23 -87 7 -81 -8 3 -17 1 -19 -6 -2 -7 -10 8 -16 33 -7 25 -18 63 -26 85 -13 39 -13 39 -8 -29 5 -51 3 -67 -5 -62 -7 4 -12 22 -12 39 0 42 -35 245 -44 254 -12 12 -6 -70 19 -245 30 -206 44 -265 92 -387 48 -121 89 -191 143 -246 l45 -46 118 -7 c142 -7 170 1 221 71 69 93 88 207 62 368 -35 217 -89 320 -190 363 -36 16 -170 42 -213 42 -17 0 -53 9 -79 20 -26 11 -49 19 -51 16 -9 -9 115 -108 173 -138 34 -18 60 -36 58 -40 -12 -19 -149 69 -226 145 -44 43 -82 77 -84 74 -2 -2 25 -38 61 -80 36 -42 61 -78 57 -80 -6 -4 -101 98 -158 168 -8 11 -12 13 -8 5z"/>
 <path d="M4710 1153 c1 -17 109 -56 178 -64 41 -5 82 -11 93 -14 22 -7 39 23 20 35 -27 16 -291 56 -291 43z"/>
 <path d="M5189 1145 c-138 -22 -154 -27 -157 -56 -3 -22 3 -27 39 -38 24 -7 53 -20 65 -28 22 -14 24 -13 49 26 16 26 46 52 80 72 30 17 55 33 55 35 0 6 -39 3 -131 -11z"/>
 <path d="M4651 1003 c0 -4 4 -17 9 -28 8 -19 9 -19 9 2 1 12 -3 25 -9 28 -5 3 -10 3 -9 -2z"/>
 <path d="M875 5643 c-83 -9 -85 -40 -7 -136 75 -93 71 -83 82 -175 11 -88 -7 -353 -35 -512 -18 -102 -19 -206 -3 -318 16 -116 28 -84 28 75 0 104 8 179 35 345 19 117 38 250 42 296 3 45 9 82 12 82 3 0 11 -21 18 -47 6 -27 15 -57 19 -67 5 -12 4 -17 -3 -13 -7 4 -6 -20 2 -71 7 -42 16 -133 20 -202 8 -144 35 -283 71 -367 14 -32 30 -70 37 -85 6 -16 16 -28 21 -28 13 0 -1 282 -18 360 -17 75 -90 303 -109 340 -14 26 -14 62 -1 318 7 156 2 181 -43 201 -23 11 -85 12 -168 4z"/>
 <path d="M1905 5640 c-12 -4 -26 -14 -32 -22 -11 -13 -14 -128 -10 -383 l1 -89 18 39 c9 22 18 51 18 65 0 14 4 32 10 40 13 21 17 3 24 -100 2 -47 19 -168 36 -270 21 -125 33 -237 37 -345 7 -173 13 -174 35 -4 10 86 9 110 -10 240 -42 275 -53 486 -31 574 7 27 31 68 64 107 68 83 78 103 66 127 -8 13 -26 20 -72 25 -79 8 -129 7 -154 -4z"/>
 <path d="M1031 5165 c-1 -5 -17 -111 -36 -234 -24 -156 -35 -258 -35 -335 0 -61 -5 -141 -12 -178 -14 -87 3 -169 44 -212 36 -36 70 -30 114 21 17 21 35 33 42 29 14 -9 37 27 52 82 10 39 9 47 -13 85 -72 125 -101 240 -122 492 -14 158 -30 280 -34 250z"/>
 <path d="M1859 5107 c-39 -78 -106 -292 -119 -377 -6 -41 -10 -129 -8 -194 l3 -120 34 69 c51 105 79 236 91 418 6 87 15 179 20 204 6 25 9 47 8 49 -2 1 -15 -21 -29 -49z"/>
 <path d="M1909 5155 c-7 -9 -15 -81 -39 -341 -13 -142 -41 -246 -91 -348 -34 -66 -40 -88 -35 -118 9 -55 27 -88 48 -88 10 0 36 -18 57 -40 64 -67 109 -48 142 61 18 58 19 77 11 117 -6 26 -13 115 -16 197 -3 99 -15 213 -35 335 -16 102 -31 196 -33 210 -2 14 -6 21 -9 15z"/>
 <path d="M1721 4265 c-1 -52 -8 -97 -20 -130 -10 -27 -21 -67 -25 -88 -7 -35 -6 -37 12 -26 33 21 68 2 118 -62 27 -34 62 -66 81 -74 18 -8 33 -19 33 -24 0 -6 4 -11 9 -11 4 0 11 42 14 93 3 60 14 116 30 162 13 39 27 88 31 110 l7 40 -19 -30 c-10 -16 -26 -36 -34 -43 -9 -7 -26 -37 -38 -67 -12 -30 -26 -52 -31 -50 -4 3 0 25 11 50 l19 44 -34 11 c-19 6 -46 26 -60 43 l-25 32 0 -47 c0 -27 -4 -48 -10 -48 -5 0 -10 19 -10 42 0 23 -7 49 -15 58 -8 9 -21 34 -29 56 l-15 39 0 -80z"/>
 <path d="M1202 4293 c-7 -24 -17 -43 -22 -43 -6 0 -10 -22 -10 -50 0 -27 -4 -50 -10 -50 -5 0 -10 20 -10 45 0 25 -2 45 -5 45 -3 0 -19 -16 -37 -35 -18 -19 -42 -36 -53 -38 -27 -3 -28 -11 -10 -54 26 -61 9 -62 -19 -1 -15 32 -32 60 -37 64 -6 3 -19 20 -30 38 -17 28 -19 29 -19 9 0 -13 14 -65 30 -117 18 -54 33 -129 37 -176 l6 -81 22 21 c12 11 29 20 37 20 9 0 27 15 39 33 62 90 117 125 147 95 20 -20 14 39 -9 102 -11 30 -24 91 -27 135 l-7 80 -13 -42z"/>
 <path d="M1180 3981 c-31 -32 -40 -50 -40 -76 0 -42 61 -236 68 -216 2 8 15 73 28 145 13 72 25 137 26 144 2 8 -7 21 -20 29 -21 15 -24 14 -62 -26z"/>
 <path d="M1696 4001 c-15 -16 -15 -24 -2 -82 8 -35 20 -104 27 -152 7 -48 16 -84 20 -80 12 12 56 152 63 200 5 37 3 46 -25 78 -45 51 -63 58 -83 36z"/>
 <path d="M1276 3949 c-10 -32 -26 -119 -37 -199 -19 -152 -40 -243 -76 -335 -69 -174 -75 -208 -80 -457 -4 -147 -2 -228 5 -228 24 0 164 105 232 174 l74 76 4 159 c3 87 -1 206 -7 263 -11 97 -97 547 -106 557 -3 2 -7 -2 -9 -10z"/>
 <path d="M1657 3945 c-14 -44 -76 -357 -91 -456 -11 -70 -16 -176 -16 -308 l0 -202 81 -80 c81 -81 214 -177 227 -164 12 12 14 256 3 372 -11 108 -57 276 -96 353 -16 31 -39 144 -65 315 -11 72 -23 144 -28 160 -8 26 -10 27 -15 10z"/>
 <path d="M1103 3877 c-51 -110 -131 -585 -117 -691 4 -28 21 -80 38 -116 l30 -65 12 105 c14 124 29 184 77 305 19 50 41 117 47 150 12 58 11 63 -24 164 -20 57 -36 114 -36 125 0 37 -15 49 -27 23z"/>
 <path d="M1816 3855 c-4 -24 -20 -81 -37 -125 -40 -112 -38 -145 22 -310 50 -139 78 -257 79 -337 0 -78 10 -79 46 -1 27 59 34 86 34 139 0 178 -99 679 -134 679 -2 0 -7 -20 -10 -45z"/>
 <path d="M1031 3839 c-19 -32 -34 -115 -51 -289 -33 -336 -34 -350 -24 -360 8 -8 13 22 17 97 7 127 47 372 80 496 19 68 21 87 10 87 -7 0 -22 -14 -32 -31z"/>
 <path d="M1870 3866 c0 -3 11 -49 25 -103 31 -119 73 -375 82 -497 4 -64 9 -83 14 -67 5 13 1 99 -11 209 -32 303 -48 404 -68 431 -17 24 -42 39 -42 27z"/>
 <path d="M360 3237 c0 -8 9 -36 20 -62 42 -99 17 -102 -30 -4 -40 85 -52 78 -16 -10 13 -33 21 -63 16 -66 -4 -3 -22 20 -39 50 -43 76 -56 69 -20 -11 30 -68 42 -130 24 -128 -5 1 -25 4 -42 7 -40 8 -44 -7 -5 -21 43 -16 164 -114 191 -155 28 -42 64 -49 101 -19 18 15 20 21 11 42 -6 14 -17 57 -25 95 -17 85 -79 257 -84 233 -2 -9 1 -33 7 -53 17 -62 -19 -39 -62 39 -43 80 -47 85 -47 63z"/>
 <path d="M2573 3238 c-6 -7 -25 -41 -42 -75 -18 -37 -38 -63 -47 -63 -15 0 -15 19 3 85 3 13 2 17 -5 10 -15 -16 -60 -143 -78 -220 -8 -38 -22 -88 -30 -109 -11 -32 -11 -42 -1 -48 14 -9 88 -31 91 -26 29 62 50 86 119 138 43 33 90 63 103 66 38 10 18 23 -20 14 -19 -4 -37 -5 -40 -2 -13 13 -4 57 24 119 33 73 33 73 22 73 -5 0 -21 -22 -36 -50 -26 -48 -46 -71 -46 -52 0 5 11 40 25 77 32 83 17 77 -24 -10 -16 -36 -35 -65 -40 -65 -15 0 -15 0 14 76 25 66 27 86 8 62z"/>
 <path d="M947 3023 c4 -133 26 -310 41 -325 4 -3 22 0 41 8 l33 14 -3 123 -4 122 -49 98 c-27 53 -52 97 -56 97 -3 0 -5 -62 -3 -137z"/>
 <path d="M1955 3096 c-51 -91 -63 -137 -69 -264 l-5 -114 36 -14 c20 -9 39 -12 44 -7 16 17 30 133 36 296 3 92 3 167 0 167 -3 0 -22 -29 -42 -64z"/>
 <path d="M1399 2955 c-19 -14 -41 -34 -49 -44 -30 -37 -154 -143 -197 -168 -25 -14 -70 -36 -101 -49 -43 -18 -56 -28 -54 -41 2 -10 32 -90 67 -178 35 -88 69 -189 76 -225 l12 -66 26 26 c14 15 32 29 39 31 8 3 17 53 27 149 33 322 67 436 164 543 41 46 37 56 -10 22z"/>
 <path d="M1480 2713 l0 -263 38 0 c35 0 96 -15 146 -35 18 -8 18 -4 12 61 -22 211 -73 360 -156 454 l-39 45 -1 -262z"/>
 <path d="M1548 2923 c44 -53 62 -85 92 -165 25 -68 58 -262 66 -392 7 -103 16 -136 36 -136 7 0 22 -9 34 -21 l22 -21 7 54 c4 29 36 127 72 218 86 219 85 212 31 228 -76 23 -179 92 -279 188 -105 101 -145 124 -81 47z"/>
 <path d="M1410 2909 c-46 -59 -74 -117 -100 -213 -20 -72 -47 -272 -38 -281 2 -3 31 4 63 15 32 11 73 20 92 20 l33 0 0 255 c0 140 -2 255 -5 255 -2 0 -23 -23 -45 -51z"/>
 <path d="M563 2799 c-7 -7 -27 -15 -46 -18 l-34 -6 39 -125 c21 -69 45 -156 54 -195 29 -128 66 -239 111 -335 l44 -95 14 39 c7 21 18 43 23 48 10 10 82 -21 114 -50 16 -13 18 -13 25 3 22 58 -45 249 -158 456 -35 63 -84 152 -109 198 -47 88 -58 99 -77 80z"/>
 <path d="M2337 2778 c-53 -86 -241 -457 -263 -518 -15 -41 -29 -106 -32 -143 l-5 -68 49 30 c75 46 94 45 112 -7 l14 -44 17 29 c40 65 92 207 126 338 20 77 42 160 50 185 8 25 23 77 34 117 l19 71 -48 16 c-61 20 -57 20 -73 -6z"/>
 <path d="M1325 2406 c-56 -22 -60 -25 -67 -62 -4 -21 -7 -51 -7 -67 l-1 -27 105 2 105 3 0 88 0 87 -37 -1 c-21 0 -65 -10 -98 -23z"/>
 <path d="M1488 2424 c-5 -4 -8 -44 -8 -88 l0 -81 111 -2 111 -2 -6 31 c-3 17 -6 45 -6 63 0 30 -5 35 -51 54 -54 24 -139 38 -151 25z"/>
 <path d="M1308 2233 c-66 -4 -63 0 -72 -118 l-6 -70 115 -1 115 0 0 92 c0 101 -3 106 -63 102 -18 -1 -58 -3 -89 -5z"/>
 <path d="M1492 2232 c-9 -6 -12 -34 -10 -98 l3 -89 100 0 c55 -1 106 -3 114 -5 15 -5 17 43 5 143 -5 40 -9 47 -28 47 -13 0 -56 3 -97 6 -41 3 -80 1 -87 -4z"/>
 <path d="M1726 2012 l1 -216 77 -73 c43 -40 82 -73 87 -73 17 0 -1 117 -36 245 -19 66 -37 143 -40 170 -10 78 -33 134 -63 149 l-27 14 1 -216z"/>
 <path d="M1194 2212 c-22 -14 -52 -88 -63 -157 -7 -38 -26 -117 -43 -175 -31 -108 -48 -230 -31 -230 5 0 45 35 90 78 l81 77 -9 120 c-8 110 -7 154 6 258 5 37 -5 47 -31 29z"/>
 <path d="M767 2073 c-8 -18 -12 -75 -11 -158 0 -114 3 -137 25 -190 22 -53 30 -63 83 -92 67 -38 72 -39 126 -17 38 15 40 19 40 58 0 180 -81 340 -203 402 l-47 24 -13 -27z"/>
 <path d="M2119 2080 c-50 -26 -117 -96 -145 -152 -33 -66 -55 -168 -52 -240 l3 -60 46 -17 45 -18 62 36 c73 43 96 81 113 191 13 85 7 211 -12 253 -14 32 -14 32 -60 7z"/>
 <path d="M1255 2021 c-18 -7 -19 -16 -17 -92 4 -109 8 -122 36 -115 13 3 57 0 99 -8 42 -7 79 -11 82 -8 3 3 5 56 5 117 l0 113 -92 0 c-51 1 -102 -3 -113 -7z"/>
 <path d="M1480 1916 c0 -63 4 -117 8 -120 4 -2 41 2 82 10 41 8 87 13 101 10 23 -4 27 -1 33 26 3 17 6 63 6 103 0 86 3 85 -137 85 l-93 0 0 -114z"/>
 <path d="M1251 1790 c-14 -6 -59 -43 -100 -83 -71 -67 -104 -90 -174 -116 -31 -12 -34 -23 -11 -42 9 -7 34 -40 56 -74 87 -130 130 -160 208 -145 82 15 150 58 171 105 27 61 41 168 33 261 -7 93 -3 89 -104 99 -30 2 -66 0 -79 -5z"/>
 <path d="M1571 1789 c-25 -5 -49 -13 -54 -18 -5 -5 -7 -62 -5 -133 9 -212 44 -268 190 -304 l68 -17 39 26 c22 15 50 41 63 59 122 167 128 178 111 185 -72 24 -115 52 -182 117 -99 97 -123 106 -230 85z"/>
 <path d="M1452 1685 c6 -104 -9 -211 -36 -264 -24 -46 -79 -81 -158 -102 -80 -21 -132 -54 -68 -43 101 17 138 27 168 44 46 28 177 28 230 1 21 -11 72 -26 115 -35 93 -19 92 -19 78 -2 -7 8 -43 22 -81 31 -72 18 -138 57 -165 98 -25 38 -46 173 -43 272 3 88 3 90 -21 93 l-24 4 5 -97z"/>
 <path d="M803 1612 c-4 -50 18 -167 41 -217 30 -64 99 -133 143 -141 18 -3 49 -3 69 1 40 7 104 35 104 45 0 4 -19 20 -43 37 -24 18 -68 69 -101 117 -64 94 -105 135 -166 166 -22 11 -41 20 -42 20 -2 0 -4 -12 -5 -28z"/>
 <path d="M2080 1611 c-52 -33 -103 -87 -153 -162 -47 -70 -55 -79 -99 -113 -21 -16 -38 -32 -38 -36 0 -17 88 -45 143 -45 59 0 59 0 111 56 34 37 58 74 70 110 20 58 34 219 20 219 -5 0 -29 -13 -54 -29z"/>
 <path d="M1386 1248 c-43 -142 -56 -204 -56 -259 l0 -53 43 42 c75 74 143 77 215 9 l32 -31 0 40 c0 37 -29 167 -50 224 -5 14 -14 44 -20 68 l-11 42 -64 0 -64 0 -25 -82z"/>
 <path d="M1325 1288 c-27 -10 -74 -22 -105 -26 l-55 -7 60 -30 c45 -22 66 -40 82 -70 24 -43 23 -45 49 55 9 36 21 73 26 83 11 21 7 20 -57 -5z"/>
 <path d="M1587 1223 c28 -99 38 -115 48 -82 7 24 53 79 66 79 3 0 24 8 45 17 l39 17 -56 7 c-49 7 -98 21 -150 43 -15 6 -14 -5 8 -81z"/>
 <path d="M1753 1221 c-69 -25 -70 -26 -96 -74 -18 -34 -22 -57 -20 -122 1 -82 23 -147 72 -220 25 -35 27 -78 6 -95 -8 -7 -15 -25 -15 -41 0 -64 -10 -72 -166 -138 -195 -83 -201 -81 -255 94 -12 39 -25 77 -30 85 -21 34 -21 43 -5 73 61 111 60 110 64 215 5 127 -11 173 -69 203 -57 29 -62 26 -54 -28 4 -27 7 -138 6 -249 -2 -222 22 -438 57 -517 24 -54 66 -103 106 -124 48 -26 180 -26 229 -1 61 31 123 94 147 150 21 48 22 67 21 243 -1 187 9 286 44 425 20 82 28 140 18 140 -4 -1 -31 -9 -60 -19z"/>
 <path d="M1425 1002 c-91 -56 -140 -156 -140 -287 0 -71 4 -87 35 -150 19 -39 43 -71 52 -73 9 -2 38 7 65 19 26 12 89 39 138 60 l90 37 13 52 c11 44 11 63 -3 128 -18 91 -54 154 -113 199 -50 38 -92 42 -137 15z"/>
 <path d="M1257 773 c-4 -3 -7 -13 -7 -22 1 -13 3 -13 11 2 11 19 8 33 -4 20z"/>
 <path d="M1702 760 c0 -14 2 -19 5 -12 2 6 2 18 0 25 -3 6 -5 1 -5 -13z"/>
 </g>
<g id="layer104" fill="#FFFFFF" stroke="none">
 <path d="M0 2900 l0 -2900 3250 0 3250 0 0 2900 0 2900 -3250 0 -3250 0 0 -2900z m4651 2774 c12 -11 32 -41 46 -68 27 -54 27 -32 7 -316 -6 -88 -4 -105 29 -230 70 -267 95 -413 101 -585 3 -88 10 -207 15 -265 6 -58 15 -215 21 -350 14 -314 31 -400 130 -655 l11 -29 20 43 c41 93 89 250 103 341 8 52 17 190 20 305 3 116 12 291 22 390 9 99 16 216 16 260 -1 88 35 285 92 507 49 187 50 208 31 363 l-17 137 27 70 c20 52 36 75 59 89 41 25 92 24 141 -4 36 -20 41 -28 48 -72 4 -28 12 -77 18 -111 14 -81 4 -124 -39 -174 l-35 -42 12 -137 c22 -237 42 -434 51 -501 16 -111 12 -194 -17 -308 -32 -129 -36 -296 -10 -432 42 -222 46 -486 11 -870 -24 -272 -33 -308 -125 -515 -73 -164 -83 -206 -76 -303 7 -88 59 -369 86 -464 l18 -63 7 55 c18 137 49 265 81 335 25 53 35 88 35 123 0 73 25 205 59 307 61 183 80 234 150 383 39 83 71 164 71 179 0 24 -34 174 -55 240 -5 16 -3 25 9 29 22 8 62 -29 70 -64 3 -15 10 -34 15 -42 16 -23 29 -2 52 81 27 95 45 129 68 129 27 0 31 -21 16 -79 -7 -28 -11 -51 -9 -51 2 0 17 27 34 60 22 43 36 60 50 60 26 0 36 -25 22 -56 -11 -22 -10 -23 7 -12 15 9 23 9 35 -1 23 -19 20 -33 -19 -90 -40 -57 -37 -63 12 -25 18 14 38 22 43 19 22 -13 8 -44 -37 -85 -27 -24 -76 -74 -109 -113 -55 -62 -64 -79 -83 -151 -12 -45 -26 -119 -31 -166 -33 -289 -76 -463 -146 -589 -21 -38 -24 -56 -24 -150 -1 -157 -16 -305 -38 -354 -14 -33 -16 -50 -9 -77 15 -56 2 -154 -27 -214 -41 -84 -85 -116 -237 -176 -74 -28 -157 -65 -186 -81 -54 -31 -103 -80 -103 -104 0 -7 18 -51 40 -97 83 -175 105 -432 46 -552 -42 -86 -92 -135 -153 -151 -37 -10 -62 -11 -85 -4 -18 5 -52 6 -75 3 -63 -9 -106 10 -163 74 -92 103 -174 306 -210 518 -26 159 -40 278 -40 339 l0 51 -73 33 c-81 35 -132 81 -169 151 -20 39 -23 60 -24 160 0 65 -5 124 -12 136 -17 33 -32 176 -32 317 0 124 -1 131 -30 186 -68 129 -98 250 -145 585 -15 104 -33 196 -45 222 -12 29 -56 81 -121 144 -68 67 -99 105 -95 115 8 21 29 19 60 -6 38 -30 40 -21 5 30 -16 24 -29 55 -29 68 0 27 24 40 44 24 12 -10 13 -5 9 29 -6 40 -5 42 18 38 17 -2 32 -18 54 -60 40 -74 49 -82 29 -25 -20 59 -16 91 13 95 17 3 25 -6 41 -50 11 -29 23 -69 27 -88 4 -19 13 -45 21 -57 16 -25 34 -30 34 -11 0 22 41 96 57 102 8 4 22 1 29 -5 11 -9 11 -17 -2 -47 -8 -21 -24 -83 -35 -140 -24 -118 -28 -100 64 -292 30 -63 60 -131 65 -150 6 -19 22 -66 36 -105 44 -118 75 -249 82 -347 6 -77 12 -102 37 -146 35 -63 62 -161 78 -280 15 -117 19 -125 35 -72 22 71 94 456 94 503 0 67 -26 151 -91 296 -69 153 -94 249 -109 411 -39 433 -38 695 4 965 27 169 27 170 11 284 -9 63 -23 138 -31 168 -16 63 -18 212 -4 298 6 33 19 159 30 280 11 121 23 244 27 272 5 50 4 56 -30 99 -45 57 -53 98 -38 179 6 34 11 78 11 98 0 63 64 111 138 104 24 -3 52 -13 63 -23z m-3598 -15 c56 -25 59 -48 54 -419 -1 -102 1 -110 51 -256 68 -199 80 -279 85 -564 4 -178 9 -243 20 -270 8 -19 29 -102 46 -185 17 -82 42 -202 56 -266 39 -184 55 -336 55 -522 l0 -172 55 -1 54 0 -6 135 c-6 133 12 352 38 471 18 80 79 373 94 447 7 39 20 84 28 100 11 21 16 88 20 283 5 272 14 342 62 480 76 219 100 349 75 409 -9 22 -10 65 -5 158 7 121 9 128 36 155 26 27 31 28 126 28 109 0 143 -11 157 -52 8 -24 4 -35 -28 -80 -20 -29 -50 -69 -67 -89 -45 -54 -54 -134 -40 -344 7 -93 19 -203 26 -243 25 -130 28 -238 10 -352 -9 -58 -20 -157 -25 -220 -6 -79 -17 -140 -36 -195 -33 -99 -42 -235 -25 -385 51 -471 53 -493 48 -700 -5 -200 -20 -305 -56 -391 -59 -141 -131 -345 -136 -389 -8 -67 14 -206 54 -340 27 -91 29 -93 36 -60 11 49 42 119 73 164 21 30 27 52 28 95 3 118 46 225 234 576 81 151 106 207 122 275 11 47 36 130 56 185 30 80 41 100 57 100 12 0 21 -9 25 -23 5 -22 7 -21 29 20 28 49 41 61 56 48 6 -5 21 -7 34 -3 17 4 23 1 28 -15 2 -11 13 -22 24 -25 27 -7 24 -34 -11 -112 -16 -37 -30 -70 -30 -74 0 -4 19 -7 43 -7 35 1 42 -2 45 -20 2 -14 -5 -24 -25 -33 -57 -26 -181 -123 -196 -154 -20 -39 -88 -267 -120 -402 -36 -148 -54 -198 -113 -322 -49 -102 -54 -119 -54 -181 0 -86 -16 -176 -41 -224 -14 -27 -17 -48 -13 -81 7 -46 -16 -170 -41 -231 -18 -43 -88 -127 -121 -144 -15 -8 -54 -14 -93 -13 l-67 0 -29 -132 c-26 -119 -30 -156 -35 -377 -7 -280 -14 -311 -93 -388 -71 -69 -127 -92 -222 -92 -72 0 -86 3 -127 29 -93 59 -127 133 -157 342 -17 120 -20 174 -15 324 3 99 2 205 -3 235 l-8 55 -101 5 c-89 4 -105 8 -135 31 -81 62 -127 169 -139 324 -4 55 -15 120 -25 145 -11 28 -19 87 -23 155 -5 100 -8 115 -38 170 -51 93 -92 204 -125 338 -16 67 -38 149 -49 182 -10 33 -28 94 -40 135 -34 121 -43 134 -128 197 -44 32 -94 66 -112 75 -48 27 -37 53 22 51 l46 -1 -13 37 c-7 21 -22 56 -34 79 -26 52 -27 72 -1 79 11 3 20 12 20 19 0 20 27 29 45 14 10 -9 15 -9 15 -1 0 6 9 11 19 11 13 0 30 -18 50 -53 30 -52 31 -52 31 -19 0 25 4 32 19 32 15 0 27 -23 59 -108 22 -60 48 -143 56 -185 16 -74 42 -129 188 -392 115 -206 168 -351 168 -455 0 -49 4 -71 16 -81 19 -16 60 -96 85 -164 10 -27 18 -41 18 -30 1 11 10 48 20 81 51 161 66 332 38 410 -8 21 -44 116 -80 209 -36 94 -73 208 -81 255 -24 124 -25 474 -4 650 37 296 42 359 41 465 -1 92 -6 126 -32 208 -21 67 -34 135 -40 215 -6 64 -17 168 -26 231 -16 120 -15 145 20 366 18 118 31 391 21 458 -6 37 -20 63 -73 128 -40 49 -65 90 -65 105 0 28 18 53 47 64 30 13 190 12 218 -1z"/>
 <path d="M4525 5660 c-41 -16 -45 -29 -61 -210 -6 -57 -4 -68 15 -90 l21 -25 -7 34 c-5 26 -3 33 8 29 18 -6 38 -101 33 -158 -21 -233 -35 -393 -40 -435 l-5 -49 25 27 c28 30 44 33 91 16 28 -10 36 -9 63 11 21 16 40 21 61 18 17 -2 31 -2 31 1 0 3 -21 93 -47 198 l-47 193 15 122 c8 68 14 143 13 168 -1 50 -43 144 -69 154 -23 8 -76 7 -100 -4z"/>
 <path d="M5386 5645 c-14 -15 -33 -50 -42 -77 -15 -45 -15 -63 -4 -157 20 -167 15 -226 -34 -418 l-43 -171 32 5 c24 4 41 -1 63 -17 26 -20 34 -21 63 -11 48 17 63 14 94 -16 23 -24 27 -25 22 -8 -3 11 -15 133 -28 270 -19 222 -20 256 -8 299 17 58 45 79 34 25 -7 -33 -6 -33 11 -16 14 13 19 32 18 75 -1 94 -19 201 -36 219 -9 9 -39 18 -67 21 -44 4 -52 2 -75 -23z"/>
 <path id="calf_1" fill="#FF00FF" muscleGroupId="5" bodyPartId="2" muscleGroupName="Calf" d="M4681 4784 c-31 -25 -31 -27 -31 -118 0 -181 12 -336 26 -336 20 0 80 56 106 98 32 52 32 188 -1 282 -22 62 -45 100 -62 100 -4 0 -21 -12 -38 -26z"/>
 <path id="calf_2" fill="#FF00FF" muscleGroupId="5" bodyPartId="2" muscleGroupName="Calf" d="M5286 4795 c-46 -47 -81 -245 -57 -333 14 -51 87 -132 119 -132 21 0 21 3 24 216 3 231 4 225 -49 253 -17 9 -25 8 -37 -4z"/>
 <path id="calf_3" fill="#FF00FF" muscleGroupId="5" bodyPartId="2" muscleGroupName="Calf" d="M4526 4758 c-58 -91 -77 -255 -44 -393 9 -38 20 -91 23 -117 8 -61 30 -81 46 -42 82 208 79 195 79 380 l0 171 -25 11 c-39 18 -63 14 -79 -10z"/>
 <path id="calf_4" fill="#FF00FF" muscleGroupId="5" bodyPartId="2" muscleGroupName="Calf" d="M5418 4769 c-16 -9 -18 -29 -18 -194 0 -178 1 -187 28 -262 16 -43 35 -91 44 -106 12 -24 16 -26 27 -14 6 8 16 40 21 70 5 30 16 79 24 108 10 33 16 90 16 153 -1 92 -4 108 -33 176 -30 67 -36 75 -62 77 -17 2 -38 -2 -47 -8z"/>
 <path id="hamstring_1" fill="#FF002F" muscleGroupId="6" bodyPartId="2" muscleGroupName="Hamstring" d="M4787 4391 c-25 -42 -72 -79 -111 -86 l-33 -7 -7 -81 c-11 -142 -7 -224 14 -299 11 -40 20 -97 20 -128 0 -87 17 -217 42 -319 l22 -94 17 84 c10 46 31 140 47 209 41 169 46 264 28 524 -8 120 -17 220 -19 222 -1 2 -11 -10 -20 -25z"/>
 <path id="hamstring_2" fill="#FF002F" muscleGroupId="6" bodyPartId="2" muscleGroupName="Hamstring" d="M5210 4394 c0 -10 -7 -113 -15 -229 -18 -252 -15 -300 35 -520 22 -93 43 -190 48 -215 l9 -45 12 45 c28 99 41 181 47 295 3 66 14 152 25 193 20 75 24 172 13 305 l-7 75 -35 7 c-24 4 -50 22 -83 57 -37 39 -49 47 -49 32z"/>
 <path d="M4587 4231 c-32 -80 -32 -85 -8 -129 l18 -34 11 113 c6 63 9 115 8 116 -1 2 -14 -28 -29 -66z"/>
 <path d="M5414 4178 l10 -110 21 42 22 43 -27 64 c-15 34 -29 65 -31 67 -2 3 0 -45 5 -106z"/>
 <path id="hamstring_3" fill="#FF002F" muscleGroupId="6" bodyPartId="2" muscleGroupName="Hamstring" d="M4526 4126 c3 -8 -6 -92 -20 -188 -14 -95 -30 -225 -36 -288 -16 -181 11 -642 36 -617 2 2 8 28 14 58 16 88 62 170 112 200 24 15 54 30 66 34 19 5 22 12 18 28 -40 139 -57 232 -66 357 -14 177 -27 235 -89 372 -19 43 -49 80 -35 44z"/>
 <path id="hamstring_4" fill="#FF002F" muscleGroupId="6" bodyPartId="2" muscleGroupName="Hamstring" d="M5457 4070 c-20 -41 -37 -83 -37 -93 0 -10 -7 -32 -16 -50 -12 -22 -20 -76 -26 -172 -9 -135 -31 -268 -62 -367 l-15 -47 46 -25 c25 -15 49 -26 52 -26 16 0 61 -58 79 -101 11 -25 25 -72 32 -105 l13 -59 14 40 c12 31 15 107 16 350 2 293 0 320 -25 485 -15 96 -29 191 -31 210 -3 34 -3 34 -40 -40z"/>
 <path id="adductor_1" fill="#FF9955" muscleGroupId="19" bodyPartId="2" muscleGroupName="Adductor" d="M4808 3590 c-21 -85 -40 -175 -43 -200 l-7 -45 57 -2 c30 -2 70 -10 87 -19 29 -15 31 -15 23 2 -31 77 -70 268 -78 384 -1 24 -13 -13 -39 -120z"/>
 <path id="adductor_1" fill="#FF9955" muscleGroupId="19" bodyPartId="2" muscleGroupName="Adductor" d="M5181 3689 c-1 -57 -38 -248 -61 -313 -11 -33 -20 -61 -20 -63 0 -2 14 4 31 12 16 9 53 17 81 17 l50 1 -7 51 c-11 86 -73 335 -74 295z"/>
 <path d="M6012 3389 c-5 -13 -17 -54 -27 -91 -32 -120 -86 -140 -113 -44 -23 79 -26 43 -4 -41 35 -134 36 -164 9 -222 -23 -46 -23 -51 -8 -64 27 -23 81 -38 86 -24 42 121 101 206 194 280 61 49 50 49 -16 1 -72 -54 -68 -6 8 99 16 22 29 44 29 50 0 18 -28 -13 -61 -68 -18 -30 -37 -55 -41 -55 -18 0 -14 22 18 100 19 46 34 87 34 90 0 3 -16 -24 -35 -60 -20 -36 -44 -74 -55 -84 -18 -19 -20 -19 -26 -1 -4 10 0 47 9 84 16 66 15 94 -1 50z"/>
 <path d="M4023 3323 c32 -129 -14 -119 -78 16 -39 82 -39 55 0 -35 19 -43 35 -85 35 -91 0 -27 -20 -11 -55 42 -36 54 -55 74 -55 58 0 -4 18 -35 40 -68 37 -55 51 -95 32 -95 -4 0 -25 12 -46 26 -28 19 -16 3 43 -56 77 -79 131 -162 131 -202 0 -22 30 -24 70 -3 35 18 34 13 15 58 -21 50 -18 106 9 217 13 52 23 96 21 98 -2 2 -12 -21 -23 -50 -11 -31 -27 -54 -37 -56 -25 -5 -54 26 -66 72 -39 142 -69 200 -36 69z"/>
 <path id="glutes_1" fill="#119955" muscleGroupId="15" bodyPartId="3" muscleGroupName="Glutes" d="M4685 3296 c-27 -13 -60 -34 -72 -47 -33 -36 -63 -111 -77 -195 l-14 -76 40 -99 c32 -79 52 -111 101 -165 l61 -66 60 4 c83 7 151 41 184 91 26 40 27 44 30 224 l3 183 -30 63 c-23 48 -39 68 -69 85 -56 31 -149 30 -217 -2z"/>
 <path id="glutes_2" fill="#119955" muscleGroupId="15" bodyPartId="3" muscleGroupName="Glutes" d="M5127 3300 c-30 -17 -46 -36 -70 -88 -31 -65 -32 -72 -35 -221 -3 -124 -1 -161 13 -197 34 -90 96 -133 203 -142 l64 -5 58 62 c46 49 67 84 100 162 39 91 42 104 35 156 -25 201 -97 282 -255 290 -62 3 -82 0 -113 -17z"/>
 <path id="glutes_1" fill="#119955" muscleGroupId="15" bodyPartId="3" muscleGroupName="Glutes" d="M5511 2933 c-33 -93 -82 -182 -127 -232 l-49 -54 65 7 c36 4 68 11 72 15 20 18 71 301 56 301 -2 0 -10 -17 -17 -37z"/>
 <path id="glutes_1" fill="#119955" muscleGroupId="15" bodyPartId="3" muscleGroupName="Glutes" d="M4501 2928 c-1 -54 36 -240 51 -254 7 -7 42 -16 78 -20 l65 -7 -55 59 c-35 38 -65 84 -82 125 -15 35 -34 80 -42 99 l-14 35 -1 -37z"/>
 <path id="forearm_1" fill="#c78950" muscleGroupId="3" bodyPartId="3" muscleGroupName="Forearm" d="M4161 2896 c-7 -8 -27 -17 -46 -20 -19 -4 -35 -12 -35 -19 0 -22 30 -230 52 -352 23 -135 55 -238 96 -313 23 -42 30 -49 45 -41 9 6 41 12 70 14 l52 3 3 53 c4 70 -20 188 -70 334 -45 134 -137 355 -148 355 -4 0 -13 -6 -19 -14z"/>
 <path id="forearm_2" fill="#c78950" muscleGroupId="3" bodyPartId="3" muscleGroupName="Forearm" d="M5795 2817 c-91 -191 -175 -487 -175 -615 0 -43 1 -44 18 -29 23 21 46 22 62 2 7 -8 21 -15 31 -15 10 0 21 -5 24 -10 10 -16 23 -3 49 48 54 109 91 261 121 497 9 72 19 140 22 153 4 17 1 22 -14 22 -10 0 -35 9 -56 20 l-38 21 -44 -94z"/>
 <path id="backLower_1" fill="#c7f950" muscleGroupId="11" bodyPartId="3" muscleGroupName="Back Lower" d="M4997 2748 c-25 -60 -100 -106 -200 -123 l-38 -6 26 -31 c56 -66 69 -106 67 -201 l-1 -87 62 65 c59 61 65 65 107 65 50 -1 82 -22 125 -86 l25 -37 0 69 c0 92 13 133 60 193 l40 50 -38 6 c-97 16 -182 69 -207 129 l-13 30 -15 -36z"/>
 <path id="absSide_1" fill="#cc1155" muscleGroupId="10" bodyPartId="3" muscleGroupName="Abs Side" d="M4570 2630 c0 -15 84 -200 91 -200 12 0 49 98 56 145 l6 45 -44 0 c-24 0 -59 4 -77 9 -18 6 -32 6 -32 1z"/>
 <path id="absSide_2" fill="#cc1155" muscleGroupId="10" bodyPartId="3" muscleGroupName="Abs Side" d="M5425 2629 c-16 -4 -51 -7 -78 -8 -53 -1 -51 5 -26 -91 13 -47 45 -105 52 -94 11 19 88 197 85 198 -2 1 -16 -1 -33 -5z"/>
 <path id="absSide_2" fill="#cc1155" muscleGroupId="10" bodyPartId="3" muscleGroupName="Abs Side" d="M4735 2528 c-10 -29 -28 -72 -42 -96 -14 -24 -21 -48 -16 -55 4 -6 10 -60 13 -120 l5 -107 67 47 68 48 0 106 c0 93 -3 111 -25 156 -40 80 -50 83 -70 21z"/>
 <path id="absSide_2" fill="#cc1155" muscleGroupId="10" bodyPartId="3" muscleGroupName="Abs Side" d="M5242 2541 c-36 -50 -40 -69 -44 -208 l-4 -101 65 -39 c36 -21 67 -39 70 -41 3 -1 5 33 3 75 -2 46 3 97 11 123 13 42 12 47 -9 82 -13 20 -32 62 -42 94 l-19 58 -31 -43z"/>
 <path id="backLower_1" fill="#c7f950" muscleGroupId="11" bodyPartId="3" muscleGroupName="Back Lower" d="M4972 2396 c-23 -12 -84 -83 -103 -118 -18 -34 21 -89 104 -145 30 -21 42 -24 60 -16 39 18 115 92 125 122 9 25 6 36 -24 83 -19 29 -44 61 -56 71 -24 20 -73 22 -106 3z"/>
 <path id="backMiddle_1" fill="#8bafc0" muscleGroupId="12" bodyPartId="3" muscleGroupName="Back Middle" d="M4758 2170 l-76 -55 -31 -160 c-18 -88 -34 -171 -37 -185 -5 -25 -4 -26 50 -28 30 0 68 -8 84 -16 31 -16 42 -13 42 13 0 32 58 137 114 206 31 39 63 86 72 104 16 34 16 35 -7 50 -13 8 -49 40 -80 70 l-55 56 -76 -55z"/>
 <path id="backMiddle_2" fill="#8bafc0" muscleGroupId="12" bodyPartId="3" muscleGroupName="Back Middle" d="M5135 2166 c-22 -23 -53 -51 -70 -63 -29 -21 -29 -21 -14 -55 9 -18 37 -58 62 -89 57 -70 102 -146 118 -199 13 -44 15 -45 55 -30 15 6 52 11 81 12 50 1 54 3 49 22 -4 12 -20 93 -38 181 -17 88 -35 165 -40 172 -12 15 -144 93 -155 92 -4 -1 -26 -20 -48 -43z"/>
 <path d="M5662 2078 c-2 -111 15 -107 20 6 2 51 -1 81 -8 83 -7 2 -11 -27 -12 -89z"/>
 <path d="M4340 2101 c0 -57 10 -111 19 -111 4 0 7 36 7 80 -1 57 -5 80 -13 80 -9 0 -13 -16 -13 -49z"/>
 <path id="triceps_1" fill="#3bafc0" muscleGroupId="4" bodyPartId="1" muscleGroupName="Triceps" d="M4388 2055 c-2 -73 -6 -90 -19 -93 -33 -6 -49 26 -49 94 0 50 -4 66 -16 71 -9 3 -20 0 -25 -8 -5 -8 -9 -88 -9 -179 0 -196 18 -287 68 -331 29 -26 168 -67 181 -53 3 3 5 56 5 117 -2 183 -49 372 -112 447 l-21 25 -3 -90z"/>
 <path id="triceps_2" fill="#3bafc0" muscleGroupId="4" bodyPartId="1" muscleGroupName="Triceps" d="M5586 2071 c-34 -66 -53 -135 -76 -274 -13 -86 -16 -225 -3 -238 12 -12 113 10 160 35 36 18 48 36 69 104 19 62 31 366 15 405 -18 46 -35 27 -42 -47 -6 -76 -27 -109 -57 -90 -14 10 -16 24 -14 87 2 42 0 77 -6 81 -5 3 -26 -25 -46 -63z"/>
 <path id="backUpperWide_1" fill="#1b3fcf" muscleGroupId="22" bodyPartId="3" muscleGroupName="Back Upper Wide" d="M5002 2040 c-6 -14 -37 -61 -71 -104 -80 -104 -116 -181 -130 -281 -39 -270 -57 -342 -110 -420 -17 -25 -31 -48 -31 -51 0 -2 26 -4 58 -4 31 0 110 -10 175 -22 l117 -22 124 22 c68 12 149 22 181 22 l57 0 -16 23 c-64 89 -88 164 -115 359 -12 81 -28 168 -37 195 -19 55 -73 144 -114 188 -16 17 -40 50 -54 75 -25 43 -25 44 -34 20z"/>
 <path id="backUpperWide_2" fill="#1b3fcf" muscleGroupId="22" bodyPartId="3" muscleGroupName="Back Upper Wide" d="M4598 1714 c-3 -5 -17 -48 -32 -95 -43 -144 -35 -184 47 -222 30 -13 63 -34 74 -46 12 -13 23 -19 26 -14 16 25 57 260 57 322 0 16 -9 32 -22 40 -26 16 -143 28 -150 15z"/>
 <path id="backUpperWide_3" fill="#1b3fcf" muscleGroupId="22" bodyPartId="3" muscleGroupName="Back Upper Wide" d="M5310 1708 c-57 -16 -59 -21 -44 -133 7 -55 21 -133 29 -173 l17 -74 21 20 c12 11 47 32 77 47 30 15 58 33 62 39 22 32 -9 216 -45 274 -9 14 -67 14 -117 0z"/>
 <path id="shoulders_1" fill="#c1ff9f" muscleGroupId="18" bodyPartId="3" muscleGroupName="Shoulders" d="M4308 1553 c-3 -84 5 -130 34 -185 36 -68 73 -95 193 -144 l88 -35 23 28 c64 79 56 108 -41 155 -36 17 -68 35 -72 41 -3 5 -11 32 -17 59 l-11 50 -74 19 c-41 11 -85 26 -98 34 -23 15 -23 15 -25 -22z"/>
 <path id="shoulders_2" fill="#c1ff9f" muscleGroupId="18" bodyPartId="3" muscleGroupName="Shoulders" d="M5691 1576 c-10 -12 -70 -32 -153 -50 -25 -6 -28 -11 -28 -44 0 -51 -21 -77 -90 -112 -32 -16 -65 -39 -74 -52 -14 -20 -14 -25 6 -60 39 -68 46 -71 114 -44 122 49 151 64 182 100 51 59 65 94 70 182 4 81 -4 107 -27 80z"/>
 <path id="trapezius_1" fill="#fb92c0" muscleGroupId="13" bodyPartId="3" muscleGroupName="Trapezius" d="M4769 1125 c52 -24 67 -28 179 -40 42 -5 52 -3 52 9 0 10 -18 18 -52 25 -86 18 -171 31 -203 31 -27 0 -25 -3 24 -25z"/>
 <path id="trapezius_2" fill="#fb92c0" muscleGroupId="13" bodyPartId="3" muscleGroupName="Trapezius" d="M5180 1139 c-138 -25 -151 -30 -148 -52 2 -14 17 -25 50 -36 26 -9 50 -19 54 -23 15 -15 30 -7 47 25 10 18 41 47 70 65 l52 32 -40 -1 c-22 -1 -60 -5 -85 -10z"/>
 <path d="M4576 1095 c12 -121 48 -347 66 -420 49 -199 164 -405 242 -435 14 -5 74 -11 134 -12 124 -3 142 4 195 78 49 70 66 127 67 229 0 141 -22 240 -83 378 -28 63 -35 71 -86 96 -66 33 -79 37 -195 51 -49 6 -104 17 -122 25 -19 8 -34 12 -34 9 0 -13 74 -70 143 -111 42 -25 77 -50 77 -54 0 -34 -133 45 -225 133 -44 43 -81 78 -83 78 -6 0 37 -52 79 -97 36 -39 49 -63 32 -63 -4 0 -30 21 -57 48 -28 26 -40 34 -27 17 14 -16 70 -73 125 -127 56 -53 98 -100 93 -104 -4 -4 -17 2 -30 14 -34 32 -47 28 -40 -13 8 -52 -14 -44 -28 9 -7 30 -15 43 -24 40 -8 -3 -16 4 -20 18 -14 46 -37 87 -52 92 -13 5 -14 4 -4 -8 14 -17 5 -40 -11 -30 -8 5 -9 1 -5 -10 4 -10 10 -35 13 -57 6 -37 5 -39 -20 -39 -20 0 -26 5 -27 23 0 12 -7 38 -14 57 l-14 35 2 -42 c1 -23 -2 -42 -8 -43 -5 0 -18 53 -28 117 -19 128 -39 206 -31 118z"/>
 <path d="M4665 1090 c3 -5 8 -10 11 -10 3 0 2 5 -1 10 -3 6 -8 10 -11 10 -3 0 -2 -4 1 -10z"/>
 <path d="M4655 1050 c3 -5 8 -10 11 -10 3 0 2 5 -1 10 -3 6 -8 10 -11 10 -3 0 -2 -4 1 -10z"/>
 <path d="M4695 1000 c3 -5 8 -10 11 -10 3 0 2 5 -1 10 -3 6 -8 10 -11 10 -3 0 -2 -4 1 -10z"/>
 <path d="M892 5641 c-59 -6 -82 -18 -82 -46 0 -5 28 -44 61 -85 33 -41 65 -86 70 -99 26 -66 17 -379 -16 -556 -24 -131 -28 -202 -14 -307 l13 -103 7 140 c4 77 22 226 39 330 17 105 34 234 37 288 4 71 9 97 19 97 8 0 16 -12 20 -27 16 -72 22 -79 23 -23 1 30 5 71 11 90 15 52 1 257 -19 281 -19 23 -78 30 -169 20z"/>
 <path d="M1913 5639 c-18 -5 -37 -17 -42 -27 -11 -22 -13 -203 -3 -337 7 -95 8 -98 20 -66 6 19 12 47 12 62 0 19 5 29 15 29 11 0 15 -11 15 -43 0 -44 26 -259 35 -287 16 -53 45 -311 46 -413 1 -152 17 -121 26 49 4 87 1 141 -16 245 -21 134 -42 403 -35 450 2 13 6 46 9 72 5 40 17 62 71 127 63 78 76 108 52 127 -18 14 -167 22 -205 12z"/>
 <path id="calf_5" fill="#FF00FF" muscleGroupId="5" bodyPartId="2" muscleGroupName="Calf" d="M1060 5159 c0 -4 5 -30 10 -59 6 -29 14 -119 19 -200 11 -170 40 -305 87 -405 l32 -70 1 126 c1 148 -15 246 -64 385 -19 55 -35 106 -35 114 -1 14 -50 122 -50 109z"/>
 <path id="tibialis_1" fill="#0092c0" muscleGroupId="8" bodyPartId="2" muscleGroupName="Tibialis Anterior" d="M1026 5100 c-4 -30 -19 -122 -32 -205 -14 -82 -29 -229 -34 -325 -5 -96 -12 -185 -15 -197 -8 -24 18 -125 41 -160 23 -36 69 -31 110 12 18 19 40 35 48 35 21 0 43 36 51 83 6 31 1 51 -33 120 -65 134 -86 228 -102 447 -6 80 -14 168 -19 195 l-7 50 -8 -55z"/>
 <path id="calf_5" fill="#FF00FF" muscleGroupId="5" bodyPartId="2" muscleGroupName="Calf" d="M1858 5097 c-35 -68 -100 -276 -113 -367 -8 -52 -15 -144 -15 -205 l0 -109 19 36 c63 124 96 261 106 438 4 69 11 149 16 179 5 30 7 56 6 57 -2 2 -10 -11 -19 -29z"/>
 <path id="tibialis_2" fill="#0092c0" muscleGroupId="8" bodyPartId="2" muscleGroupName="Tibialis Anterior" d="M1897 5077 c-4 -29 -11 -118 -17 -197 -13 -182 -38 -289 -96 -410 l-45 -96 18 -54 c13 -39 24 -56 38 -59 11 -2 34 -18 51 -37 40 -43 83 -46 112 -9 29 37 46 118 37 179 -4 28 -9 110 -11 181 -2 72 -10 175 -19 230 -8 55 -23 151 -32 213 -10 61 -20 112 -24 112 -3 0 -9 -24 -12 -53z"/>
 <path d="M1723 4255 c0 -53 -5 -93 -16 -117 -21 -47 -37 -118 -27 -118 5 0 12 5 15 10 18 30 80 -14 133 -92 13 -21 30 -38 37 -38 7 0 24 -9 37 -20 l25 -19 6 74 c4 40 20 116 37 168 37 114 37 131 5 92 -32 -37 -65 -99 -65 -120 0 -8 -7 -15 -15 -15 -8 0 -15 4 -15 9 0 5 7 25 15 44 19 45 19 47 0 47 -8 0 -33 16 -55 36 l-40 36 0 -47 c0 -33 -4 -45 -12 -42 -8 2 -13 21 -13 44 0 22 -6 47 -13 55 -6 8 -18 33 -26 54 -13 39 -13 39 -13 -41z"/>
 <path d="M1212 4304 c-1 -12 -11 -33 -22 -47 -14 -17 -20 -40 -20 -72 0 -60 -24 -57 -28 3 l-3 42 -25 -29 c-13 -16 -38 -33 -55 -36 -17 -4 -28 -12 -26 -18 3 -7 12 -29 21 -49 26 -62 -6 -48 -35 15 -13 28 -36 65 -50 81 l-27 28 8 -33 c4 -19 18 -63 30 -99 14 -38 25 -99 28 -147 l4 -82 26 19 c13 11 30 20 37 20 7 0 31 25 54 55 53 71 86 93 112 77 10 -7 21 -12 24 -12 8 0 -6 62 -23 100 -8 19 -18 73 -22 120 -4 47 -8 75 -8 64z"/>
 <path id="quadriceps_1" fill="#bb12c0" muscleGroupId="7" bodyPartId="2" muscleGroupName="Quadriceps" d="M1175 3969 c-33 -37 -36 -44 -30 -82 4 -23 19 -78 33 -122 l27 -80 8 55 c5 30 17 98 28 149 13 69 15 98 7 108 -17 21 -34 15 -73 -28z"/>
 <path id="quadriceps_2" fill="#bb12c0" muscleGroupId="7" bodyPartId="2" muscleGroupName="Quadriceps" d="M1691 3996 c-8 -9 -8 -22 -1 -42 6 -16 18 -83 28 -149 l19 -120 16 39 c23 53 47 147 47 184 0 19 -11 42 -33 66 -35 38 -57 45 -76 22z"/>
 <path id="adductor_3" fill="#FF9955" muscleGroupId="19" bodyPartId="2" muscleGroupName="Adductor" d="M1272 3915 c-6 -22 -16 -78 -22 -125 -22 -172 -44 -268 -87 -385 -65 -172 -73 -222 -80 -457 -5 -175 -4 -208 8 -208 26 0 127 74 213 158 l86 82 0 201 c0 225 -11 316 -69 594 -37 175 -38 179 -49 140z"/>
 <path id="adductor_4" fill="#FF9955" muscleGroupId="19" bodyPartId="2" muscleGroupName="Adductor" d="M1657 3930 c-4 -14 -14 -59 -22 -100 -9 -41 -26 -127 -40 -190 -34 -167 -48 -330 -43 -506 l4 -154 74 -76 c70 -71 194 -164 218 -164 26 0 16 389 -13 506 -10 38 -34 112 -55 164 -39 99 -59 181 -85 365 -9 61 -20 126 -24 145 -8 33 -8 34 -14 10z"/>
 <path id="quadriceps_3" fill="#bb12c0" muscleGroupId="7" bodyPartId="2" muscleGroupName="Quadriceps" d="M1102 3869 c-21 -53 -62 -241 -87 -404 -34 -214 -31 -317 8 -385 30 -51 31 -50 45 76 6 54 24 128 42 180 72 200 80 228 80 270 0 24 -12 74 -26 111 -14 38 -31 93 -38 123 -13 52 -14 54 -24 29z"/>
 <path id="quadriceps_4" fill="#bb12c0" muscleGroupId="7" bodyPartId="2" muscleGroupName="Quadriceps" d="M1820 3867 c0 -16 -16 -76 -36 -135 -44 -130 -43 -141 26 -328 46 -123 75 -258 80 -364 2 -31 58 97 65 146 15 112 -79 647 -122 694 -11 12 -13 10 -13 -13z"/>
 <path id="quadriceps_5" fill="#bb12c0" muscleGroupId="7" bodyPartId="2" muscleGroupName="Quadriceps" d="M1043 3846 c-11 -14 -25 -51 -31 -83 -13 -69 -45 -373 -40 -379 2 -2 12 54 22 124 10 69 31 178 47 241 16 63 27 117 25 118 -2 2 -13 -7 -23 -21z"/>
 <path id="quadriceps_6" fill="#bb12c0" muscleGroupId="7" bodyPartId="2" muscleGroupName="Quadriceps" d="M1875 3853 c25 -63 95 -428 95 -494 0 -12 3 -20 6 -16 6 6 -4 117 -32 342 -11 82 -21 130 -35 152 -22 35 -46 46 -34 16z"/>
 <path d="M963 3315 c0 -22 2 -30 4 -17 2 12 2 30 0 40 -3 9 -5 -1 -4 -23z"/>
 <path d="M1983 3255 c0 -33 2 -45 4 -27 2 18 2 45 0 60 -2 15 -4 0 -4 -33z"/>
 <path d="M952 3230 c0 -19 2 -27 5 -17 2 9 2 25 0 35 -3 9 -5 1 -5 -18z"/>
 <path d="M385 3176 c40 -107 8 -116 -35 -10 -13 30 -25 52 -28 50 -2 -3 6 -30 18 -61 35 -87 10 -90 -36 -5 -38 70 -41 55 -4 -24 16 -37 30 -80 30 -97 0 -31 0 -31 -42 -24 l-43 6 43 -25 c73 -43 162 -116 177 -147 13 -23 22 -29 49 -29 46 0 61 20 48 62 -6 18 -16 59 -22 91 -6 31 -25 92 -41 135 -25 66 -28 71 -23 34 5 -39 4 -43 -12 -40 -11 2 -33 30 -54 70 -48 90 -55 95 -25 14z"/>
 <path d="M2545 3179 c-49 -102 -82 -122 -71 -42 3 25 4 45 2 42 -11 -11 -65 -183 -79 -249 -9 -41 -18 -82 -22 -91 -5 -12 2 -20 26 -28 44 -15 69 -14 69 4 0 32 139 154 212 185 18 8 14 9 -18 4 -25 -3 -45 -1 -48 5 -9 14 5 60 38 134 31 70 16 67 -19 -4 -37 -72 -62 -63 -31 12 30 73 24 80 -8 12 -50 -104 -81 -93 -36 13 31 72 19 74 -15 3z"/>
 <path id="hipAndLateralRotator_1" fill="#114499" muscleGroupId="21" bodyPartId="3" muscleGroupName="Hip and Lateral Rotator" d="M953 3005 c6 -164 24 -294 42 -301 6 -3 23 0 37 5 l26 10 -5 113 c-5 128 -18 177 -69 263 l-36 60 5 -150z"/>
 <path id="hipAndLateralRotator_2" fill="#114499" muscleGroupId="21" bodyPartId="3" muscleGroupName="Hip and Lateral Rotator" d="M1955 3086 c-52 -93 -64 -139 -67 -258 -3 -103 -2 -107 20 -118 51 -23 55 -18 71 90 10 67 23 350 16 350 -2 0 -20 -29 -40 -64z"/>
 <path id="absSide_3" fill="#cc1155" muscleGroupId="10" bodyPartId="3" muscleGroupName="Abs Side" d="M1327 2882 c-51 -48 -109 -100 -129 -115 -40 -30 -155 -87 -175 -87 -6 0 -14 -4 -18 -9 -6 -10 40 -142 99 -282 19 -48 39 -112 42 -143 l7 -56 23 25 c13 14 29 25 37 25 11 0 16 23 21 98 8 103 40 320 57 387 16 59 65 153 105 202 20 24 33 43 29 43 -3 0 -47 -40 -98 -88z"/>
 <path id="absFront_1" fill="#FFf155" muscleGroupId="9" bodyPartId="3" muscleGroupName="Abs Front" d="M1485 2925 c2 -22 4 -138 4 -257 l1 -218 43 0 c24 0 65 -7 91 -16 26 -9 48 -15 50 -13 7 9 -26 220 -44 287 -26 93 -57 155 -108 212 l-40 45 3 -40z"/>
 <path id="absSide_4" fill="#cc1155" muscleGroupId="10" bodyPartId="3" muscleGroupName="Abs Side" d="M1530 2955 c0 -4 14 -23 30 -42 37 -42 73 -111 94 -183 19 -65 52 -279 61 -401 6 -83 7 -85 36 -96 16 -6 33 -12 36 -13 4 0 15 30 24 67 9 37 35 113 58 168 23 54 50 124 60 154 l18 56 -86 41 c-95 45 -186 110 -248 176 -51 55 -83 83 -83 73z"/>
 <path id="absFront_2" fill="#FFf155" muscleGroupId="9" bodyPartId="3" muscleGroupName="Abs Front" d="M1423 2922 c-76 -98 -114 -203 -138 -390 -8 -62 -15 -115 -15 -117 0 -1 23 5 50 16 28 10 70 19 95 19 l45 0 0 250 c0 138 -3 250 -7 249 -5 0 -18 -12 -30 -27z"/>
 <path id="forearm_3" fill="#c78950" muscleGroupId="3" bodyPartId="3" muscleGroupName="Forearm" d="M566 2794 c-11 -8 -32 -14 -48 -14 -15 0 -28 -3 -28 -6 0 -3 18 -65 40 -137 22 -73 48 -168 59 -212 32 -136 52 -196 98 -295 l45 -95 14 40 c7 22 14 41 14 43 0 10 44 -3 87 -27 48 -27 53 -27 58 -11 16 51 -52 243 -149 420 -35 63 -85 156 -111 205 -26 50 -51 93 -54 97 -3 4 -15 0 -25 -8z"/>
 <path id="forearm_4" fill="#c78950" muscleGroupId="3" bodyPartId="3" muscleGroupName="Forearm" d="M2274 2653 c-42 -81 -86 -164 -97 -183 -56 -97 -95 -189 -118 -275 -18 -67 -25 -135 -14 -135 3 0 22 11 43 24 20 14 49 28 65 31 25 7 29 3 46 -35 l19 -43 37 79 c38 81 95 243 95 268 0 8 23 93 50 189 28 96 50 179 50 184 0 5 -17 15 -37 22 -21 7 -43 14 -49 17 -7 3 -44 -56 -90 -143z"/>
 <path id="absFront_2" fill="#FFf155" muscleGroupId="9" bodyPartId="3" muscleGroupName="Abs Front" d="M1325 2404 c-55 -20 -62 -30 -67 -98 l-5 -58 36 6 c20 3 66 6 104 6 l67 0 0 80 0 80 -47 -1 c-27 0 -66 -7 -88 -15z"/>
 <path id="absFront_3" fill="#FFf155" muscleGroupId="9" bodyPartId="3" muscleGroupName="Abs Front" d="M1489 2364 c0 -33 -2 -69 -3 -81 -3 -22 1 -23 69 -23 40 0 87 -3 104 -6 30 -6 31 -5 31 29 0 70 -10 93 -48 112 -21 9 -63 20 -94 22 l-58 6 -1 -59z"/>
 <path id="absFront_4" fill="#FFf155" muscleGroupId="9" bodyPartId="3" muscleGroupName="Abs Front" d="M1254 2219 c-3 -6 -9 -49 -12 -97 -5 -78 -4 -85 12 -79 10 4 60 7 112 7 l94 0 0 90 0 90 -99 0 c-62 0 -102 -4 -107 -11z"/>
 <path id="absFront_5" fill="#FFf155" muscleGroupId="9" bodyPartId="3" muscleGroupName="Abs Front" d="M1486 2143 c1 -67 5 -88 15 -90 8 -1 58 -4 113 -5 l98 -4 -7 85 c-4 48 -12 89 -19 93 -6 4 -54 8 -106 8 l-95 0 1 -87z"/>
 <path id="ribs_1" fill="#5555ff" muscleGroupId="20" bodyPartId="3" muscleGroupName="Ribs" d="M1199 2208 c-31 -26 -48 -68 -63 -150 -8 -47 -26 -124 -41 -172 -29 -95 -47 -226 -31 -226 5 0 44 33 85 74 l76 73 -8 64 c-4 35 -6 128 -4 207 3 78 4 142 3 142 -1 0 -9 -6 -17 -12z"/>
 <path id="ribs_2" fill="#5555ff" muscleGroupId="20" bodyPartId="3" muscleGroupName="Ribs" d="M1727 2193 c9 -34 10 -292 2 -348 -6 -40 -5 -41 79 -120 l85 -80 -6 72 c-3 39 -20 120 -37 179 -17 60 -36 144 -42 187 -8 58 -18 87 -36 108 -32 38 -55 39 -45 2z"/>
 <path id="biceps_1" fill="#FF1199" muscleGroupId="3" bodyPartId="1" muscleGroupName="Biceps" d="M769 2064 c-30 -80 -16 -276 25 -356 15 -31 36 -51 79 -76 54 -31 60 -32 95 -21 59 19 62 24 56 93 -11 122 -40 209 -97 290 -20 28 -116 96 -137 96 -6 0 -15 -12 -21 -26z"/>
 <path id="biceps_2" fill="#FF1199" muscleGroupId="3" bodyPartId="1" muscleGroupName="Biceps" d="M2099 2062 c-24 -16 -57 -44 -73 -63 -62 -73 -106 -207 -106 -326 0 -41 1 -42 49 -58 l49 -16 58 35 c33 19 65 45 73 58 26 43 41 123 42 226 0 106 -13 172 -35 172 -7 0 -32 -13 -57 -28z"/>
 <path id="absFront_6" fill="#FFf155" muscleGroupId="9" bodyPartId="3" muscleGroupName="Abs Front" d="M1275 2022 c-26 -6 -30 -12 -33 -47 -2 -22 -1 -67 3 -100 l6 -60 47 0 c26 0 73 -4 105 -8 l57 -8 0 110 0 111 -27 0 c-16 0 -50 2 -78 4 -27 3 -63 2 -80 -2z"/>
 <path id="absFront_7" fill="#FFf155" muscleGroupId="9" bodyPartId="3" muscleGroupName="Abs Front" d="M1535 2023 l-50 -4 1 -107 2 -107 28 1 c16 1 63 5 105 9 l77 8 7 90 c4 49 3 93 -2 98 -11 11 -104 18 -168 12z"/>
 <path id="chest_1" fill="#00f155" muscleGroupId="14" bodyPartId="3" muscleGroupName="Chest" d="M1229 1773 c-14 -10 -52 -45 -85 -77 -39 -39 -82 -70 -127 -91 -62 -29 -67 -33 -51 -46 9 -8 42 -51 72 -97 71 -108 112 -137 184 -129 59 7 135 44 160 78 30 41 48 136 48 251 0 65 -4 109 -11 113 -6 4 -45 9 -87 12 -63 4 -82 1 -103 -14z"/>
 <path id="chest_2" fill="#00f155" muscleGroupId="14" bodyPartId="3" muscleGroupName="Chest" d="M1548 1783 c-28 -4 -28 -5 -30 -86 -4 -180 13 -257 68 -305 40 -34 116 -62 171 -62 41 0 100 51 150 130 19 30 49 69 65 86 l30 32 -39 12 c-55 17 -108 54 -190 132 l-72 68 -63 -1 c-35 -1 -75 -4 -90 -6z"/>
 <path d="M1457 1687 c6 -93 -9 -201 -37 -264 -23 -52 -74 -86 -171 -113 -77 -21 -95 -30 -61 -30 39 0 127 22 167 43 56 28 184 28 240 0 37 -19 127 -43 161 -43 34 0 0 18 -57 30 -76 16 -148 63 -171 111 -26 52 -38 129 -38 245 0 95 -2 104 -19 104 -17 0 -18 -6 -14 -83z"/>
 <path id="shoulders_3" fill="#c1ff9f" muscleGroupId="18" bodyPartId="3" muscleGroupName="Shoulders" d="M812 1559 c6 -104 35 -181 89 -243 49 -56 95 -71 165 -56 27 6 58 17 68 25 18 14 17 17 -28 56 -26 23 -69 74 -96 113 -53 78 -105 131 -164 166 l-39 23 5 -84z"/>
 <path id="shoulders_4" fill="#c1ff9f" muscleGroupId="18" bodyPartId="3" muscleGroupName="Shoulders" d="M2075 1601 c-59 -38 -88 -70 -163 -181 -20 -30 -56 -68 -79 -86 -46 -35 -44 -42 16 -63 46 -15 116 -14 149 3 40 21 91 90 114 154 17 49 38 212 27 212 -2 0 -31 -18 -64 -39z"/>
 <path id="neck_1" fill="#0092c0" muscleGroupId="16" bodyPartId="3" muscleGroupName="Neck" d="M1387 1233 c-35 -117 -44 -157 -52 -228 l-7 -60 39 36 c47 45 73 59 112 59 40 0 70 -13 103 -44 15 -14 29 -26 31 -26 12 0 -8 108 -41 223 l-36 127 -61 0 -62 0 -26 -87z"/>
 <path id="trapezius_3" fill="#fb92c0" muscleGroupId="13" bodyPartId="3" muscleGroupName="Trapezius" d="M1340 1289 c-19 -10 -53 -20 -75 -24 -79 -13 -80 -15 -26 -41 41 -18 56 -32 70 -63 l18 -40 26 92 c14 50 25 92 24 93 -1 0 -18 -7 -37 -17z"/>
 <path id="trapezius_4" fill="#fb92c0" muscleGroupId="13" bodyPartId="3" muscleGroupName="Trapezius" d="M1570 1303 c1 -5 11 -43 23 -85 22 -75 37 -106 37 -78 0 28 51 80 90 91 22 7 38 14 36 16 -2 3 -34 11 -71 18 -37 8 -78 22 -91 30 -13 9 -24 12 -24 8z"/>
 <path d="M1746 1214 c-81 -29 -106 -76 -106 -200 0 -45 4 -85 9 -89 5 -3 15 -22 22 -43 6 -20 22 -50 35 -65 32 -38 40 -74 22 -95 -8 -9 -20 -42 -27 -72 l-11 -55 -145 -63 c-163 -72 -188 -75 -222 -24 -26 39 -62 133 -65 168 -2 14 -8 30 -15 36 -21 17 -15 62 16 109 19 28 34 68 40 109 25 151 4 233 -69 270 -23 12 -43 20 -45 18 -1 -2 1 -32 7 -68 5 -36 8 -148 6 -250 -6 -371 43 -554 166 -617 45 -23 173 -22 217 3 67 37 105 73 134 126 l30 53 7 250 c6 233 11 285 38 385 6 21 14 59 19 84 10 53 5 55 -63 30z"/>
 <path d="M1445 1006 c-89 -40 -157 -164 -158 -286 0 -74 45 -205 76 -222 14 -7 37 -1 95 25 42 20 107 49 143 65 58 26 67 34 73 62 10 52 7 90 -11 169 -14 61 -25 82 -62 124 -39 43 -93 78 -118 77 -4 -1 -21 -7 -38 -14z"/>
 </g>

</svg>