<!DOCTYPE svg PUBLIC "-//W3C//DTD SVG 20010904//EN" "http://www.w3.org/TR/2001/REC-SVG-20010904/DTD/svg10.dtd">
<svg version="1.0" xmlns="http://www.w3.org/2000/svg" viewBox="0 0 6500 5800" preserveAspectRatio="xMidYMid meet">
<g id="layer101" fill="#282828" stroke="none">
 <path d="M0 2900 l0 -2900 3250 0 3250 0 0 2900 0 2900 -3250 0 -3250 0 0 -2900z"/>
 </g>

<g id="layer104" fill="#FFFFFF" stroke="none">
 <path d="M0 2900 l0 -2900 3250 0 3250 0 0 2900 0 2900 -3250 0 -3250 0 0 -2900z m4651 2774 c12 -11 32 -41 46 -68 27 -54 27 -32 7 -316 -6 -88 -4 -105 29 -230 70 -267 95 -413 101 -585 3 -88 10 -207 15 -265 6 -58 15 -215 21 -350 14 -314 31 -400 130 -655 l11 -29 20 43 c41 93 89 250 103 341 8 52 17 190 20 305 3 116 12 291 22 390 9 99 16 216 16 260 -1 88 35 285 92 507 49 187 50 208 31 363 l-17 137 27 70 c20 52 36 75 59 89 41 25 92 24 141 -4 36 -20 41 -28 48 -72 4 -28 12 -77 18 -111 14 -81 4 -124 -39 -174 l-35 -42 12 -137 c22 -237 42 -434 51 -501 16 -111 12 -194 -17 -308 -32 -129 -36 -296 -10 -432 42 -222 46 -486 11 -870 -24 -272 -33 -308 -125 -515 -73 -164 -83 -206 -76 -303 7 -88 59 -369 86 -464 l18 -63 7 55 c18 137 49 265 81 335 25 53 35 88 35 123 0 73 25 205 59 307 61 183 80 234 150 383 39 83 71 164 71 179 0 24 -34 174 -55 240 -5 16 -3 25 9 29 22 8 62 -29 70 -64 3 -15 10 -34 15 -42 16 -23 29 -2 52 81 27 95 45 129 68 129 27 0 31 -21 16 -79 -7 -28 -11 -51 -9 -51 2 0 17 27 34 60 22 43 36 60 50 60 26 0 36 -25 22 -56 -11 -22 -10 -23 7 -12 15 9 23 9 35 -1 23 -19 20 -33 -19 -90 -40 -57 -37 -63 12 -25 18 14 38 22 43 19 22 -13 8 -44 -37 -85 -27 -24 -76 -74 -109 -113 -55 -62 -64 -79 -83 -151 -12 -45 -26 -119 -31 -166 -33 -289 -76 -463 -146 -589 -21 -38 -24 -56 -24 -150 -1 -157 -16 -305 -38 -354 -14 -33 -16 -50 -9 -77 15 -56 2 -154 -27 -214 -41 -84 -85 -116 -237 -176 -74 -28 -157 -65 -186 -81 -54 -31 -103 -80 -103 -104 0 -7 18 -51 40 -97 83 -175 105 -432 46 -552 -42 -86 -92 -135 -153 -151 -37 -10 -62 -11 -85 -4 -18 5 -52 6 -75 3 -63 -9 -106 10 -163 74 -92 103 -174 306 -210 518 -26 159 -40 278 -40 339 l0 51 -73 33 c-81 35 -132 81 -169 151 -20 39 -23 60 -24 160 0 65 -5 124 -12 136 -17 33 -32 176 -32 317 0 124 -1 131 -30 186 -68 129 -98 250 -145 585 -15 104 -33 196 -45 222 -12 29 -56 81 -121 144 -68 67 -99 105 -95 115 8 21 29 19 60 -6 38 -30 40 -21 5 30 -16 24 -29 55 -29 68 0 27 24 40 44 24 12 -10 13 -5 9 29 -6 40 -5 42 18 38 17 -2 32 -18 54 -60 40 -74 49 -82 29 -25 -20 59 -16 91 13 95 17 3 25 -6 41 -50 11 -29 23 -69 27 -88 4 -19 13 -45 21 -57 16 -25 34 -30 34 -11 0 22 41 96 57 102 8 4 22 1 29 -5 11 -9 11 -17 -2 -47 -8 -21 -24 -83 -35 -140 -24 -118 -28 -100 64 -292 30 -63 60 -131 65 -150 6 -19 22 -66 36 -105 44 -118 75 -249 82 -347 6 -77 12 -102 37 -146 35 -63 62 -161 78 -280 15 -117 19 -125 35 -72 22 71 94 456 94 503 0 67 -26 151 -91 296 -69 153 -94 249 -109 411 -39 433 -38 695 4 965 27 169 27 170 11 284 -9 63 -23 138 -31 168 -16 63 -18 212 -4 298 6 33 19 159 30 280 11 121 23 244 27 272 5 50 4 56 -30 99 -45 57 -53 98 -38 179 6 34 11 78 11 98 0 63 64 111 138 104 24 -3 52 -13 63 -23z m-3598 -15 c56 -25 59 -48 54 -419 -1 -102 1 -110 51 -256 68 -199 80 -279 85 -564 4 -178 9 -243 20 -270 8 -19 29 -102 46 -185 17 -82 42 -202 56 -266 39 -184 55 -336 55 -522 l0 -172 55 -1 54 0 -6 135 c-6 133 12 352 38 471 18 80 79 373 94 447 7 39 20 84 28 100 11 21 16 88 20 283 5 272 14 342 62 480 76 219 100 349 75 409 -9 22 -10 65 -5 158 7 121 9 128 36 155 26 27 31 28 126 28 109 0 143 -11 157 -52 8 -24 4 -35 -28 -80 -20 -29 -50 -69 -67 -89 -45 -54 -54 -134 -40 -344 7 -93 19 -203 26 -243 25 -130 28 -238 10 -352 -9 -58 -20 -157 -25 -220 -6 -79 -17 -140 -36 -195 -33 -99 -42 -235 -25 -385 51 -471 53 -493 48 -700 -5 -200 -20 -305 -56 -391 -59 -141 -131 -345 -136 -389 -8 -67 14 -206 54 -340 27 -91 29 -93 36 -60 11 49 42 119 73 164 21 30 27 52 28 95 3 118 46 225 234 576 81 151 106 207 122 275 11 47 36 130 56 185 30 80 41 100 57 100 12 0 21 -9 25 -23 5 -22 7 -21 29 20 28 49 41 61 56 48 6 -5 21 -7 34 -3 17 4 23 1 28 -15 2 -11 13 -22 24 -25 27 -7 24 -34 -11 -112 -16 -37 -30 -70 -30 -74 0 -4 19 -7 43 -7 35 1 42 -2 45 -20 2 -14 -5 -24 -25 -33 -57 -26 -181 -123 -196 -154 -20 -39 -88 -267 -120 -402 -36 -148 -54 -198 -113 -322 -49 -102 -54 -119 -54 -181 0 -86 -16 -176 -41 -224 -14 -27 -17 -48 -13 -81 7 -46 -16 -170 -41 -231 -18 -43 -88 -127 -121 -144 -15 -8 -54 -14 -93 -13 l-67 0 -29 -132 c-26 -119 -30 -156 -35 -377 -7 -280 -14 -311 -93 -388 -71 -69 -127 -92 -222 -92 -72 0 -86 3 -127 29 -93 59 -127 133 -157 342 -17 120 -20 174 -15 324 3 99 2 205 -3 235 l-8 55 -101 5 c-89 4 -105 8 -135 31 -81 62 -127 169 -139 324 -4 55 -15 120 -25 145 -11 28 -19 87 -23 155 -5 100 -8 115 -38 170 -51 93 -92 204 -125 338 -16 67 -38 149 -49 182 -10 33 -28 94 -40 135 -34 121 -43 134 -128 197 -44 32 -94 66 -112 75 -48 27 -37 53 22 51 l46 -1 -13 37 c-7 21 -22 56 -34 79 -26 52 -27 72 -1 79 11 3 20 12 20 19 0 20 27 29 45 14 10 -9 15 -9 15 -1 0 6 9 11 19 11 13 0 30 -18 50 -53 30 -52 31 -52 31 -19 0 25 4 32 19 32 15 0 27 -23 59 -108 22 -60 48 -143 56 -185 16 -74 42 -129 188 -392 115 -206 168 -351 168 -455 0 -49 4 -71 16 -81 19 -16 60 -96 85 -164 10 -27 18 -41 18 -30 1 11 10 48 20 81 51 161 66 332 38 410 -8 21 -44 116 -80 209 -36 94 -73 208 -81 255 -24 124 -25 474 -4 650 37 296 42 359 41 465 -1 92 -6 126 -32 208 -21 67 -34 135 -40 215 -6 64 -17 168 -26 231 -16 120 -15 145 20 366 18 118 31 391 21 458 -6 37 -20 63 -73 128 -40 49 -65 90 -65 105 0 28 18 53 47 64 30 13 190 12 218 -1z"/>
 <path d="M4525 5660 c-41 -16 -45 -29 -61 -210 -6 -57 -4 -68 15 -90 l21 -25 -7 34 c-5 26 -3 33 8 29 18 -6 38 -101 33 -158 -21 -233 -35 -393 -40 -435 l-5 -49 25 27 c28 30 44 33 91 16 28 -10 36 -9 63 11 21 16 40 21 61 18 17 -2 31 -2 31 1 0 3 -21 93 -47 198 l-47 193 15 122 c8 68 14 143 13 168 -1 50 -43 144 -69 154 -23 8 -76 7 -100 -4z"/>
 <path d="M5386 5645 c-14 -15 -33 -50 -42 -77 -15 -45 -15 -63 -4 -157 20 -167 15 -226 -34 -418 l-43 -171 32 5 c24 4 41 -1 63 -17 26 -20 34 -21 63 -11 48 17 63 14 94 -16 23 -24 27 -25 22 -8 -3 11 -15 133 -28 270 -19 222 -20 256 -8 299 17 58 45 79 34 25 -7 -33 -6 -33 11 -16 14 13 19 32 18 75 -1 94 -19 201 -36 219 -9 9 -39 18 -67 21 -44 4 -52 2 -75 -23z"/>
 <path id="calf_1" muscleGroupId="5" bodyPartId="2" muscleGroupName="Calf" d="M4681 4784 c-31 -25 -31 -27 -31 -118 0 -181 12 -336 26 -336 20 0 80 56 106 98 32 52 32 188 -1 282 -22 62 -45 100 -62 100 -4 0 -21 -12 -38 -26z"/>
 <path id="calf_2" muscleGroupId="5" bodyPartId="2" muscleGroupName="Calf" d="M5286 4795 c-46 -47 -81 -245 -57 -333 14 -51 87 -132 119 -132 21 0 21 3 24 216 3 231 4 225 -49 253 -17 9 -25 8 -37 -4z"/>
 <path id="calf_3" muscleGroupId="5" bodyPartId="2" muscleGroupName="Calf" d="M4526 4758 c-58 -91 -77 -255 -44 -393 9 -38 20 -91 23 -117 8 -61 30 -81 46 -42 82 208 79 195 79 380 l0 171 -25 11 c-39 18 -63 14 -79 -10z"/>
 <path id="calf_4" muscleGroupId="5" bodyPartId="2" muscleGroupName="Calf" d="M5418 4769 c-16 -9 -18 -29 -18 -194 0 -178 1 -187 28 -262 16 -43 35 -91 44 -106 12 -24 16 -26 27 -14 6 8 16 40 21 70 5 30 16 79 24 108 10 33 16 90 16 153 -1 92 -4 108 -33 176 -30 67 -36 75 -62 77 -17 2 -38 -2 -47 -8z"/>
 <path id="hamstring_1" muscleGroupId="6" bodyPartId="2" muscleGroupName="Hamstring" d="M4787 4391 c-25 -42 -72 -79 -111 -86 l-33 -7 -7 -81 c-11 -142 -7 -224 14 -299 11 -40 20 -97 20 -128 0 -87 17 -217 42 -319 l22 -94 17 84 c10 46 31 140 47 209 41 169 46 264 28 524 -8 120 -17 220 -19 222 -1 2 -11 -10 -20 -25z"/>
 <path id="hamstring_2" muscleGroupId="6" bodyPartId="2" muscleGroupName="Hamstring" d="M5210 4394 c0 -10 -7 -113 -15 -229 -18 -252 -15 -300 35 -520 22 -93 43 -190 48 -215 l9 -45 12 45 c28 99 41 181 47 295 3 66 14 152 25 193 20 75 24 172 13 305 l-7 75 -35 7 c-24 4 -50 22 -83 57 -37 39 -49 47 -49 32z"/>
 <path d="M4587 4231 c-32 -80 -32 -85 -8 -129 l18 -34 11 113 c6 63 9 115 8 116 -1 2 -14 -28 -29 -66z"/>
 <path d="M5414 4178 l10 -110 21 42 22 43 -27 64 c-15 34 -29 65 -31 67 -2 3 0 -45 5 -106z"/>
 <path id="hamstring_3" muscleGroupId="6" bodyPartId="2" muscleGroupName="Hamstring" d="M4526 4126 c3 -8 -6 -92 -20 -188 -14 -95 -30 -225 -36 -288 -16 -181 11 -642 36 -617 2 2 8 28 14 58 16 88 62 170 112 200 24 15 54 30 66 34 19 5 22 12 18 28 -40 139 -57 232 -66 357 -14 177 -27 235 -89 372 -19 43 -49 80 -35 44z"/>
 <path id="hamstring_4" muscleGroupId="6" bodyPartId="2" muscleGroupName="Hamstring" d="M5457 4070 c-20 -41 -37 -83 -37 -93 0 -10 -7 -32 -16 -50 -12 -22 -20 -76 -26 -172 -9 -135 -31 -268 -62 -367 l-15 -47 46 -25 c25 -15 49 -26 52 -26 16 0 61 -58 79 -101 11 -25 25 -72 32 -105 l13 -59 14 40 c12 31 15 107 16 350 2 293 0 320 -25 485 -15 96 -29 191 -31 210 -3 34 -3 34 -40 -40z"/>
 <path id="adductor_1" muscleGroupId="19" bodyPartId="2" muscleGroupName="Adductor" d="M4808 3590 c-21 -85 -40 -175 -43 -200 l-7 -45 57 -2 c30 -2 70 -10 87 -19 29 -15 31 -15 23 2 -31 77 -70 268 -78 384 -1 24 -13 -13 -39 -120z"/>
 <path id="adductor_1" muscleGroupId="19" bodyPartId="2" muscleGroupName="Adductor" d="M5181 3689 c-1 -57 -38 -248 -61 -313 -11 -33 -20 -61 -20 -63 0 -2 14 4 31 12 16 9 53 17 81 17 l50 1 -7 51 c-11 86 -73 335 -74 295z"/>
 <path d="M6012 3389 c-5 -13 -17 -54 -27 -91 -32 -120 -86 -140 -113 -44 -23 79 -26 43 -4 -41 35 -134 36 -164 9 -222 -23 -46 -23 -51 -8 -64 27 -23 81 -38 86 -24 42 121 101 206 194 280 61 49 50 49 -16 1 -72 -54 -68 -6 8 99 16 22 29 44 29 50 0 18 -28 -13 -61 -68 -18 -30 -37 -55 -41 -55 -18 0 -14 22 18 100 19 46 34 87 34 90 0 3 -16 -24 -35 -60 -20 -36 -44 -74 -55 -84 -18 -19 -20 -19 -26 -1 -4 10 0 47 9 84 16 66 15 94 -1 50z"/>
 <path d="M4023 3323 c32 -129 -14 -119 -78 16 -39 82 -39 55 0 -35 19 -43 35 -85 35 -91 0 -27 -20 -11 -55 42 -36 54 -55 74 -55 58 0 -4 18 -35 40 -68 37 -55 51 -95 32 -95 -4 0 -25 12 -46 26 -28 19 -16 3 43 -56 77 -79 131 -162 131 -202 0 -22 30 -24 70 -3 35 18 34 13 15 58 -21 50 -18 106 9 217 13 52 23 96 21 98 -2 2 -12 -21 -23 -50 -11 -31 -27 -54 -37 -56 -25 -5 -54 26 -66 72 -39 142 -69 200 -36 69z"/>
 <path id="glutes_1" muscleGroupId="15" bodyPartId="3" muscleGroupName="Glutes" d="M4685 3296 c-27 -13 -60 -34 -72 -47 -33 -36 -63 -111 -77 -195 l-14 -76 40 -99 c32 -79 52 -111 101 -165 l61 -66 60 4 c83 7 151 41 184 91 26 40 27 44 30 224 l3 183 -30 63 c-23 48 -39 68 -69 85 -56 31 -149 30 -217 -2z"/>
 <path id="glutes_2" muscleGroupId="15" bodyPartId="3" muscleGroupName="Glutes" d="M5127 3300 c-30 -17 -46 -36 -70 -88 -31 -65 -32 -72 -35 -221 -3 -124 -1 -161 13 -197 34 -90 96 -133 203 -142 l64 -5 58 62 c46 49 67 84 100 162 39 91 42 104 35 156 -25 201 -97 282 -255 290 -62 3 -82 0 -113 -17z"/>
 <path id="glutes_1" muscleGroupId="15" bodyPartId="3" muscleGroupName="Glutes" d="M5511 2933 c-33 -93 -82 -182 -127 -232 l-49 -54 65 7 c36 4 68 11 72 15 20 18 71 301 56 301 -2 0 -10 -17 -17 -37z"/>
 <path id="glutes_1" muscleGroupId="15" bodyPartId="3" muscleGroupName="Glutes" d="M4501 2928 c-1 -54 36 -240 51 -254 7 -7 42 -16 78 -20 l65 -7 -55 59 c-35 38 -65 84 -82 125 -15 35 -34 80 -42 99 l-14 35 -1 -37z"/>
 <path id="forearm_1" muscleGroupId="3" bodyPartId="3" muscleGroupName="Forearm" d="M4161 2896 c-7 -8 -27 -17 -46 -20 -19 -4 -35 -12 -35 -19 0 -22 30 -230 52 -352 23 -135 55 -238 96 -313 23 -42 30 -49 45 -41 9 6 41 12 70 14 l52 3 3 53 c4 70 -20 188 -70 334 -45 134 -137 355 -148 355 -4 0 -13 -6 -19 -14z"/>
 <path id="forearm_2" muscleGroupId="3" bodyPartId="3" muscleGroupName="Forearm" d="M5795 2817 c-91 -191 -175 -487 -175 -615 0 -43 1 -44 18 -29 23 21 46 22 62 2 7 -8 21 -15 31 -15 10 0 21 -5 24 -10 10 -16 23 -3 49 48 54 109 91 261 121 497 9 72 19 140 22 153 4 17 1 22 -14 22 -10 0 -35 9 -56 20 l-38 21 -44 -94z"/>
 <path id="backLower_1" muscleGroupId="11" bodyPartId="3" muscleGroupName="Back Lower" d="M4997 2748 c-25 -60 -100 -106 -200 -123 l-38 -6 26 -31 c56 -66 69 -106 67 -201 l-1 -87 62 65 c59 61 65 65 107 65 50 -1 82 -22 125 -86 l25 -37 0 69 c0 92 13 133 60 193 l40 50 -38 6 c-97 16 -182 69 -207 129 l-13 30 -15 -36z"/>
 <path id="absSide_1" muscleGroupId="10" bodyPartId="3" muscleGroupName="Abs Side" d="M4570 2630 c0 -15 84 -200 91 -200 12 0 49 98 56 145 l6 45 -44 0 c-24 0 -59 4 -77 9 -18 6 -32 6 -32 1z"/>
 <path id="absSide_2" muscleGroupId="10" bodyPartId="3" muscleGroupName="Abs Side" d="M5425 2629 c-16 -4 -51 -7 -78 -8 -53 -1 -51 5 -26 -91 13 -47 45 -105 52 -94 11 19 88 197 85 198 -2 1 -16 -1 -33 -5z"/>
 <path id="absSide_2" muscleGroupId="10" bodyPartId="3" muscleGroupName="Abs Side" d="M4735 2528 c-10 -29 -28 -72 -42 -96 -14 -24 -21 -48 -16 -55 4 -6 10 -60 13 -120 l5 -107 67 47 68 48 0 106 c0 93 -3 111 -25 156 -40 80 -50 83 -70 21z"/>
 <path id="absSide_2" muscleGroupId="10" bodyPartId="3" muscleGroupName="Abs Side" d="M5242 2541 c-36 -50 -40 -69 -44 -208 l-4 -101 65 -39 c36 -21 67 -39 70 -41 3 -1 5 33 3 75 -2 46 3 97 11 123 13 42 12 47 -9 82 -13 20 -32 62 -42 94 l-19 58 -31 -43z"/>
 <path id="backLower_1" muscleGroupId="11" bodyPartId="3" muscleGroupName="Back Lower" d="M4972 2396 c-23 -12 -84 -83 -103 -118 -18 -34 21 -89 104 -145 30 -21 42 -24 60 -16 39 18 115 92 125 122 9 25 6 36 -24 83 -19 29 -44 61 -56 71 -24 20 -73 22 -106 3z"/>
 <path id="backMiddle_1" muscleGroupId="12" bodyPartId="3" muscleGroupName="Back Middle" d="M4758 2170 l-76 -55 -31 -160 c-18 -88 -34 -171 -37 -185 -5 -25 -4 -26 50 -28 30 0 68 -8 84 -16 31 -16 42 -13 42 13 0 32 58 137 114 206 31 39 63 86 72 104 16 34 16 35 -7 50 -13 8 -49 40 -80 70 l-55 56 -76 -55z"/>
 <path id="backMiddle_2" muscleGroupId="12" bodyPartId="3" muscleGroupName="Back Middle" d="M5135 2166 c-22 -23 -53 -51 -70 -63 -29 -21 -29 -21 -14 -55 9 -18 37 -58 62 -89 57 -70 102 -146 118 -199 13 -44 15 -45 55 -30 15 6 52 11 81 12 50 1 54 3 49 22 -4 12 -20 93 -38 181 -17 88 -35 165 -40 172 -12 15 -144 93 -155 92 -4 -1 -26 -20 -48 -43z"/>
 <path d="M5662 2078 c-2 -111 15 -107 20 6 2 51 -1 81 -8 83 -7 2 -11 -27 -12 -89z"/>
 <path d="M4340 2101 c0 -57 10 -111 19 -111 4 0 7 36 7 80 -1 57 -5 80 -13 80 -9 0 -13 -16 -13 -49z"/>
 <path id="triceps_1" muscleGroupId="4" bodyPartId="1" muscleGroupName="Triceps" d="M4388 2055 c-2 -73 -6 -90 -19 -93 -33 -6 -49 26 -49 94 0 50 -4 66 -16 71 -9 3 -20 0 -25 -8 -5 -8 -9 -88 -9 -179 0 -196 18 -287 68 -331 29 -26 168 -67 181 -53 3 3 5 56 5 117 -2 183 -49 372 -112 447 l-21 25 -3 -90z"/>
 <path id="triceps_2" muscleGroupId="4" bodyPartId="1" muscleGroupName="Triceps" d="M5586 2071 c-34 -66 -53 -135 -76 -274 -13 -86 -16 -225 -3 -238 12 -12 113 10 160 35 36 18 48 36 69 104 19 62 31 366 15 405 -18 46 -35 27 -42 -47 -6 -76 -27 -109 -57 -90 -14 10 -16 24 -14 87 2 42 0 77 -6 81 -5 3 -26 -25 -46 -63z"/>
 <path id="backUpperWide_1" muscleGroupId="22" bodyPartId="3" muscleGroupName="Back Upper Wide" d="M5002 2040 c-6 -14 -37 -61 -71 -104 -80 -104 -116 -181 -130 -281 -39 -270 -57 -342 -110 -420 -17 -25 -31 -48 -31 -51 0 -2 26 -4 58 -4 31 0 110 -10 175 -22 l117 -22 124 22 c68 12 149 22 181 22 l57 0 -16 23 c-64 89 -88 164 -115 359 -12 81 -28 168 -37 195 -19 55 -73 144 -114 188 -16 17 -40 50 -54 75 -25 43 -25 44 -34 20z"/>
 <path id="backUpperWide_2" muscleGroupId="22" bodyPartId="3" muscleGroupName="Back Upper Wide" d="M4598 1714 c-3 -5 -17 -48 -32 -95 -43 -144 -35 -184 47 -222 30 -13 63 -34 74 -46 12 -13 23 -19 26 -14 16 25 57 260 57 322 0 16 -9 32 -22 40 -26 16 -143 28 -150 15z"/>
 <path id="backUpperWide_3" muscleGroupId="22" bodyPartId="3" muscleGroupName="Back Upper Wide" d="M5310 1708 c-57 -16 -59 -21 -44 -133 7 -55 21 -133 29 -173 l17 -74 21 20 c12 11 47 32 77 47 30 15 58 33 62 39 22 32 -9 216 -45 274 -9 14 -67 14 -117 0z"/>
 <path id="shoulders_1" muscleGroupId="18" bodyPartId="3" muscleGroupName="Shoulders" d="M4308 1553 c-3 -84 5 -130 34 -185 36 -68 73 -95 193 -144 l88 -35 23 28 c64 79 56 108 -41 155 -36 17 -68 35 -72 41 -3 5 -11 32 -17 59 l-11 50 -74 19 c-41 11 -85 26 -98 34 -23 15 -23 15 -25 -22z"/>
 <path id="shoulders_2" muscleGroupId="18" bodyPartId="3" muscleGroupName="Shoulders" d="M5691 1576 c-10 -12 -70 -32 -153 -50 -25 -6 -28 -11 -28 -44 0 -51 -21 -77 -90 -112 -32 -16 -65 -39 -74 -52 -14 -20 -14 -25 6 -60 39 -68 46 -71 114 -44 122 49 151 64 182 100 51 59 65 94 70 182 4 81 -4 107 -27 80z"/>
 <path id="trapezius_1" muscleGroupId="13" bodyPartId="3" muscleGroupName="Trapezius" d="M4769 1125 c52 -24 67 -28 179 -40 42 -5 52 -3 52 9 0 10 -18 18 -52 25 -86 18 -171 31 -203 31 -27 0 -25 -3 24 -25z"/>
 <path id="trapezius_2" muscleGroupId="13" bodyPartId="3" muscleGroupName="Trapezius" d="M5180 1139 c-138 -25 -151 -30 -148 -52 2 -14 17 -25 50 -36 26 -9 50 -19 54 -23 15 -15 30 -7 47 25 10 18 41 47 70 65 l52 32 -40 -1 c-22 -1 -60 -5 -85 -10z"/>
 <path d="M4576 1095 c12 -121 48 -347 66 -420 49 -199 164 -405 242 -435 14 -5 74 -11 134 -12 124 -3 142 4 195 78 49 70 66 127 67 229 0 141 -22 240 -83 378 -28 63 -35 71 -86 96 -66 33 -79 37 -195 51 -49 6 -104 17 -122 25 -19 8 -34 12 -34 9 0 -13 74 -70 143 -111 42 -25 77 -50 77 -54 0 -34 -133 45 -225 133 -44 43 -81 78 -83 78 -6 0 37 -52 79 -97 36 -39 49 -63 32 -63 -4 0 -30 21 -57 48 -28 26 -40 34 -27 17 14 -16 70 -73 125 -127 56 -53 98 -100 93 -104 -4 -4 -17 2 -30 14 -34 32 -47 28 -40 -13 8 -52 -14 -44 -28 9 -7 30 -15 43 -24 40 -8 -3 -16 4 -20 18 -14 46 -37 87 -52 92 -13 5 -14 4 -4 -8 14 -17 5 -40 -11 -30 -8 5 -9 1 -5 -10 4 -10 10 -35 13 -57 6 -37 5 -39 -20 -39 -20 0 -26 5 -27 23 0 12 -7 38 -14 57 l-14 35 2 -42 c1 -23 -2 -42 -8 -43 -5 0 -18 53 -28 117 -19 128 -39 206 -31 118z"/>
 <path d="M4665 1090 c3 -5 8 -10 11 -10 3 0 2 5 -1 10 -3 6 -8 10 -11 10 -3 0 -2 -4 1 -10z"/>
 <path d="M4655 1050 c3 -5 8 -10 11 -10 3 0 2 5 -1 10 -3 6 -8 10 -11 10 -3 0 -2 -4 1 -10z"/>
 <path d="M4695 1000 c3 -5 8 -10 11 -10 3 0 2 5 -1 10 -3 6 -8 10 -11 10 -3 0 -2 -4 1 -10z"/>
 <path d="M892 5641 c-59 -6 -82 -18 -82 -46 0 -5 28 -44 61 -85 33 -41 65 -86 70 -99 26 -66 17 -379 -16 -556 -24 -131 -28 -202 -14 -307 l13 -103 7 140 c4 77 22 226 39 330 17 105 34 234 37 288 4 71 9 97 19 97 8 0 16 -12 20 -27 16 -72 22 -79 23 -23 1 30 5 71 11 90 15 52 1 257 -19 281 -19 23 -78 30 -169 20z"/>
 <path d="M1913 5639 c-18 -5 -37 -17 -42 -27 -11 -22 -13 -203 -3 -337 7 -95 8 -98 20 -66 6 19 12 47 12 62 0 19 5 29 15 29 11 0 15 -11 15 -43 0 -44 26 -259 35 -287 16 -53 45 -311 46 -413 1 -152 17 -121 26 49 4 87 1 141 -16 245 -21 134 -42 403 -35 450 2 13 6 46 9 72 5 40 17 62 71 127 63 78 76 108 52 127 -18 14 -167 22 -205 12z"/>
 <path id="calf_5" muscleGroupId="5" bodyPartId="2" muscleGroupName="Calf" d="M1060 5159 c0 -4 5 -30 10 -59 6 -29 14 -119 19 -200 11 -170 40 -305 87 -405 l32 -70 1 126 c1 148 -15 246 -64 385 -19 55 -35 106 -35 114 -1 14 -50 122 -50 109z"/>
 <path id="tibialis_1" muscleGroupId="8" bodyPartId="2" muscleGroupName="Tibialis Anterior" d="M1026 5100 c-4 -30 -19 -122 -32 -205 -14 -82 -29 -229 -34 -325 -5 -96 -12 -185 -15 -197 -8 -24 18 -125 41 -160 23 -36 69 -31 110 12 18 19 40 35 48 35 21 0 43 36 51 83 6 31 1 51 -33 120 -65 134 -86 228 -102 447 -6 80 -14 168 -19 195 l-7 50 -8 -55z"/>
 <path id="calf_5" muscleGroupId="5" bodyPartId="2" muscleGroupName="Calf" d="M1858 5097 c-35 -68 -100 -276 -113 -367 -8 -52 -15 -144 -15 -205 l0 -109 19 36 c63 124 96 261 106 438 4 69 11 149 16 179 5 30 7 56 6 57 -2 2 -10 -11 -19 -29z"/>
 <path id="tibialis_2" muscleGroupId="8" bodyPartId="2" muscleGroupName="Tibialis Anterior" d="M1897 5077 c-4 -29 -11 -118 -17 -197 -13 -182 -38 -289 -96 -410 l-45 -96 18 -54 c13 -39 24 -56 38 -59 11 -2 34 -18 51 -37 40 -43 83 -46 112 -9 29 37 46 118 37 179 -4 28 -9 110 -11 181 -2 72 -10 175 -19 230 -8 55 -23 151 -32 213 -10 61 -20 112 -24 112 -3 0 -9 -24 -12 -53z"/>
 <path d="M1723 4255 c0 -53 -5 -93 -16 -117 -21 -47 -37 -118 -27 -118 5 0 12 5 15 10 18 30 80 -14 133 -92 13 -21 30 -38 37 -38 7 0 24 -9 37 -20 l25 -19 6 74 c4 40 20 116 37 168 37 114 37 131 5 92 -32 -37 -65 -99 -65 -120 0 -8 -7 -15 -15 -15 -8 0 -15 4 -15 9 0 5 7 25 15 44 19 45 19 47 0 47 -8 0 -33 16 -55 36 l-40 36 0 -47 c0 -33 -4 -45 -12 -42 -8 2 -13 21 -13 44 0 22 -6 47 -13 55 -6 8 -18 33 -26 54 -13 39 -13 39 -13 -41z"/>
 <path d="M1212 4304 c-1 -12 -11 -33 -22 -47 -14 -17 -20 -40 -20 -72 0 -60 -24 -57 -28 3 l-3 42 -25 -29 c-13 -16 -38 -33 -55 -36 -17 -4 -28 -12 -26 -18 3 -7 12 -29 21 -49 26 -62 -6 -48 -35 15 -13 28 -36 65 -50 81 l-27 28 8 -33 c4 -19 18 -63 30 -99 14 -38 25 -99 28 -147 l4 -82 26 19 c13 11 30 20 37 20 7 0 31 25 54 55 53 71 86 93 112 77 10 -7 21 -12 24 -12 8 0 -6 62 -23 100 -8 19 -18 73 -22 120 -4 47 -8 75 -8 64z"/>
 <path id="quadriceps_1" muscleGroupId="7" bodyPartId="2" muscleGroupName="Quadriceps" d="M1175 3969 c-33 -37 -36 -44 -30 -82 4 -23 19 -78 33 -122 l27 -80 8 55 c5 30 17 98 28 149 13 69 15 98 7 108 -17 21 -34 15 -73 -28z"/>
 <path id="quadriceps_2" muscleGroupId="7" bodyPartId="2" muscleGroupName="Quadriceps" d="M1691 3996 c-8 -9 -8 -22 -1 -42 6 -16 18 -83 28 -149 l19 -120 16 39 c23 53 47 147 47 184 0 19 -11 42 -33 66 -35 38 -57 45 -76 22z"/>
 <path id="adductor_3" muscleGroupId="19" bodyPartId="2" muscleGroupName="Adductor" d="M1272 3915 c-6 -22 -16 -78 -22 -125 -22 -172 -44 -268 -87 -385 -65 -172 -73 -222 -80 -457 -5 -175 -4 -208 8 -208 26 0 127 74 213 158 l86 82 0 201 c0 225 -11 316 -69 594 -37 175 -38 179 -49 140z"/>
 <path id="adductor_4" muscleGroupId="19" bodyPartId="2" muscleGroupName="Adductor" d="M1657 3930 c-4 -14 -14 -59 -22 -100 -9 -41 -26 -127 -40 -190 -34 -167 -48 -330 -43 -506 l4 -154 74 -76 c70 -71 194 -164 218 -164 26 0 16 389 -13 506 -10 38 -34 112 -55 164 -39 99 -59 181 -85 365 -9 61 -20 126 -24 145 -8 33 -8 34 -14 10z"/>
 <path id="quadriceps_3" muscleGroupId="7" bodyPartId="2" muscleGroupName="Quadriceps" d="M1102 3869 c-21 -53 -62 -241 -87 -404 -34 -214 -31 -317 8 -385 30 -51 31 -50 45 76 6 54 24 128 42 180 72 200 80 228 80 270 0 24 -12 74 -26 111 -14 38 -31 93 -38 123 -13 52 -14 54 -24 29z"/>
 <path id="quadriceps_4" muscleGroupId="7" bodyPartId="2" muscleGroupName="Quadriceps" d="M1820 3867 c0 -16 -16 -76 -36 -135 -44 -130 -43 -141 26 -328 46 -123 75 -258 80 -364 2 -31 58 97 65 146 15 112 -79 647 -122 694 -11 12 -13 10 -13 -13z"/>
 <path id="quadriceps_5" muscleGroupId="7" bodyPartId="2" muscleGroupName="Quadriceps" d="M1043 3846 c-11 -14 -25 -51 -31 -83 -13 -69 -45 -373 -40 -379 2 -2 12 54 22 124 10 69 31 178 47 241 16 63 27 117 25 118 -2 2 -13 -7 -23 -21z"/>
 <path id="quadriceps_6" muscleGroupId="7" bodyPartId="2" muscleGroupName="Quadriceps" d="M1875 3853 c25 -63 95 -428 95 -494 0 -12 3 -20 6 -16 6 6 -4 117 -32 342 -11 82 -21 130 -35 152 -22 35 -46 46 -34 16z"/>
 <path d="M963 3315 c0 -22 2 -30 4 -17 2 12 2 30 0 40 -3 9 -5 -1 -4 -23z"/>
 <path d="M1983 3255 c0 -33 2 -45 4 -27 2 18 2 45 0 60 -2 15 -4 0 -4 -33z"/>
 <path d="M952 3230 c0 -19 2 -27 5 -17 2 9 2 25 0 35 -3 9 -5 1 -5 -18z"/>
 <path d="M385 3176 c40 -107 8 -116 -35 -10 -13 30 -25 52 -28 50 -2 -3 6 -30 18 -61 35 -87 10 -90 -36 -5 -38 70 -41 55 -4 -24 16 -37 30 -80 30 -97 0 -31 0 -31 -42 -24 l-43 6 43 -25 c73 -43 162 -116 177 -147 13 -23 22 -29 49 -29 46 0 61 20 48 62 -6 18 -16 59 -22 91 -6 31 -25 92 -41 135 -25 66 -28 71 -23 34 5 -39 4 -43 -12 -40 -11 2 -33 30 -54 70 -48 90 -55 95 -25 14z"/>
 <path d="M2545 3179 c-49 -102 -82 -122 -71 -42 3 25 4 45 2 42 -11 -11 -65 -183 -79 -249 -9 -41 -18 -82 -22 -91 -5 -12 2 -20 26 -28 44 -15 69 -14 69 4 0 32 139 154 212 185 18 8 14 9 -18 4 -25 -3 -45 -1 -48 5 -9 14 5 60 38 134 31 70 16 67 -19 -4 -37 -72 -62 -63 -31 12 30 73 24 80 -8 12 -50 -104 -81 -93 -36 13 31 72 19 74 -15 3z"/>
 <path id="hipAndLateralRotator_1" muscleGroupId="21" bodyPartId="3" muscleGroupName="Hip and Lateral Rotator" d="M953 3005 c6 -164 24 -294 42 -301 6 -3 23 0 37 5 l26 10 -5 113 c-5 128 -18 177 -69 263 l-36 60 5 -150z"/>
 <path id="hipAndLateralRotator_2" muscleGroupId="21" bodyPartId="3" muscleGroupName="Hip and Lateral Rotator" d="M1955 3086 c-52 -93 -64 -139 -67 -258 -3 -103 -2 -107 20 -118 51 -23 55 -18 71 90 10 67 23 350 16 350 -2 0 -20 -29 -40 -64z"/>
 <path id="absSide_3" muscleGroupId="10" bodyPartId="3" muscleGroupName="Abs Side" d="M1327 2882 c-51 -48 -109 -100 -129 -115 -40 -30 -155 -87 -175 -87 -6 0 -14 -4 -18 -9 -6 -10 40 -142 99 -282 19 -48 39 -112 42 -143 l7 -56 23 25 c13 14 29 25 37 25 11 0 16 23 21 98 8 103 40 320 57 387 16 59 65 153 105 202 20 24 33 43 29 43 -3 0 -47 -40 -98 -88z"/>
 <path id="absFront_1" muscleGroupId="9" bodyPartId="3" muscleGroupName="Abs Front" d="M1485 2925 c2 -22 4 -138 4 -257 l1 -218 43 0 c24 0 65 -7 91 -16 26 -9 48 -15 50 -13 7 9 -26 220 -44 287 -26 93 -57 155 -108 212 l-40 45 3 -40z"/>
 <path id="absSide_4" muscleGroupId="10" bodyPartId="3" muscleGroupName="Abs Side" d="M1530 2955 c0 -4 14 -23 30 -42 37 -42 73 -111 94 -183 19 -65 52 -279 61 -401 6 -83 7 -85 36 -96 16 -6 33 -12 36 -13 4 0 15 30 24 67 9 37 35 113 58 168 23 54 50 124 60 154 l18 56 -86 41 c-95 45 -186 110 -248 176 -51 55 -83 83 -83 73z"/>
 <path id="absFront_2" muscleGroupId="9" bodyPartId="3" muscleGroupName="Abs Front" d="M1423 2922 c-76 -98 -114 -203 -138 -390 -8 -62 -15 -115 -15 -117 0 -1 23 5 50 16 28 10 70 19 95 19 l45 0 0 250 c0 138 -3 250 -7 249 -5 0 -18 -12 -30 -27z"/>
 <path id="forearm_3" muscleGroupId="3" bodyPartId="3" muscleGroupName="Forearm" d="M566 2794 c-11 -8 -32 -14 -48 -14 -15 0 -28 -3 -28 -6 0 -3 18 -65 40 -137 22 -73 48 -168 59 -212 32 -136 52 -196 98 -295 l45 -95 14 40 c7 22 14 41 14 43 0 10 44 -3 87 -27 48 -27 53 -27 58 -11 16 51 -52 243 -149 420 -35 63 -85 156 -111 205 -26 50 -51 93 -54 97 -3 4 -15 0 -25 -8z"/>
 <path id="forearm_4" muscleGroupId="3" bodyPartId="3" muscleGroupName="Forearm" d="M2274 2653 c-42 -81 -86 -164 -97 -183 -56 -97 -95 -189 -118 -275 -18 -67 -25 -135 -14 -135 3 0 22 11 43 24 20 14 49 28 65 31 25 7 29 3 46 -35 l19 -43 37 79 c38 81 95 243 95 268 0 8 23 93 50 189 28 96 50 179 50 184 0 5 -17 15 -37 22 -21 7 -43 14 -49 17 -7 3 -44 -56 -90 -143z"/>
 <path id="absFront_2" muscleGroupId="9" bodyPartId="3" muscleGroupName="Abs Front" d="M1325 2404 c-55 -20 -62 -30 -67 -98 l-5 -58 36 6 c20 3 66 6 104 6 l67 0 0 80 0 80 -47 -1 c-27 0 -66 -7 -88 -15z"/>
 <path id="absFront_3" muscleGroupId="9" bodyPartId="3" muscleGroupName="Abs Front" d="M1489 2364 c0 -33 -2 -69 -3 -81 -3 -22 1 -23 69 -23 40 0 87 -3 104 -6 30 -6 31 -5 31 29 0 70 -10 93 -48 112 -21 9 -63 20 -94 22 l-58 6 -1 -59z"/>
 <path id="absFront_4" muscleGroupId="9" bodyPartId="3" muscleGroupName="Abs Front" d="M1254 2219 c-3 -6 -9 -49 -12 -97 -5 -78 -4 -85 12 -79 10 4 60 7 112 7 l94 0 0 90 0 90 -99 0 c-62 0 -102 -4 -107 -11z"/>
 <path id="absFront_5" muscleGroupId="9" bodyPartId="3" muscleGroupName="Abs Front" d="M1486 2143 c1 -67 5 -88 15 -90 8 -1 58 -4 113 -5 l98 -4 -7 85 c-4 48 -12 89 -19 93 -6 4 -54 8 -106 8 l-95 0 1 -87z"/>
 <path id="ribs_1" muscleGroupId="20" bodyPartId="3" muscleGroupName="Ribs" d="M1199 2208 c-31 -26 -48 -68 -63 -150 -8 -47 -26 -124 -41 -172 -29 -95 -47 -226 -31 -226 5 0 44 33 85 74 l76 73 -8 64 c-4 35 -6 128 -4 207 3 78 4 142 3 142 -1 0 -9 -6 -17 -12z"/>
 <path id="ribs_2" muscleGroupId="20" bodyPartId="3" muscleGroupName="Ribs" d="M1727 2193 c9 -34 10 -292 2 -348 -6 -40 -5 -41 79 -120 l85 -80 -6 72 c-3 39 -20 120 -37 179 -17 60 -36 144 -42 187 -8 58 -18 87 -36 108 -32 38 -55 39 -45 2z"/>
 <path id="biceps_1" muscleGroupId="3" bodyPartId="1" muscleGroupName="Biceps" d="M769 2064 c-30 -80 -16 -276 25 -356 15 -31 36 -51 79 -76 54 -31 60 -32 95 -21 59 19 62 24 56 93 -11 122 -40 209 -97 290 -20 28 -116 96 -137 96 -6 0 -15 -12 -21 -26z"/>
 <path id="biceps_2" muscleGroupId="3" bodyPartId="1" muscleGroupName="Biceps" d="M2099 2062 c-24 -16 -57 -44 -73 -63 -62 -73 -106 -207 -106 -326 0 -41 1 -42 49 -58 l49 -16 58 35 c33 19 65 45 73 58 26 43 41 123 42 226 0 106 -13 172 -35 172 -7 0 -32 -13 -57 -28z"/>
 <path id="absFront_6" muscleGroupId="9" bodyPartId="3" muscleGroupName="Abs Front" d="M1275 2022 c-26 -6 -30 -12 -33 -47 -2 -22 -1 -67 3 -100 l6 -60 47 0 c26 0 73 -4 105 -8 l57 -8 0 110 0 111 -27 0 c-16 0 -50 2 -78 4 -27 3 -63 2 -80 -2z"/>
 <path id="absFront_7" muscleGroupId="9" bodyPartId="3" muscleGroupName="Abs Front" d="M1535 2023 l-50 -4 1 -107 2 -107 28 1 c16 1 63 5 105 9 l77 8 7 90 c4 49 3 93 -2 98 -11 11 -104 18 -168 12z"/>
 <path id="chest_1" muscleGroupId="14" bodyPartId="3" muscleGroupName="Chest" d="M1229 1773 c-14 -10 -52 -45 -85 -77 -39 -39 -82 -70 -127 -91 -62 -29 -67 -33 -51 -46 9 -8 42 -51 72 -97 71 -108 112 -137 184 -129 59 7 135 44 160 78 30 41 48 136 48 251 0 65 -4 109 -11 113 -6 4 -45 9 -87 12 -63 4 -82 1 -103 -14z"/>
 <path id="chest_2" muscleGroupId="14" bodyPartId="3" muscleGroupName="Chest" d="M1548 1783 c-28 -4 -28 -5 -30 -86 -4 -180 13 -257 68 -305 40 -34 116 -62 171 -62 41 0 100 51 150 130 19 30 49 69 65 86 l30 32 -39 12 c-55 17 -108 54 -190 132 l-72 68 -63 -1 c-35 -1 -75 -4 -90 -6z"/>
 <path d="M1457 1687 c6 -93 -9 -201 -37 -264 -23 -52 -74 -86 -171 -113 -77 -21 -95 -30 -61 -30 39 0 127 22 167 43 56 28 184 28 240 0 37 -19 127 -43 161 -43 34 0 0 18 -57 30 -76 16 -148 63 -171 111 -26 52 -38 129 -38 245 0 95 -2 104 -19 104 -17 0 -18 -6 -14 -83z"/>
 <path id="shoulders_3" muscleGroupId="18" bodyPartId="3" muscleGroupName="Shoulders" d="M812 1559 c6 -104 35 -181 89 -243 49 -56 95 -71 165 -56 27 6 58 17 68 25 18 14 17 17 -28 56 -26 23 -69 74 -96 113 -53 78 -105 131 -164 166 l-39 23 5 -84z"/>
 <path id="shoulders_4" muscleGroupId="18" bodyPartId="3" muscleGroupName="Shoulders" d="M2075 1601 c-59 -38 -88 -70 -163 -181 -20 -30 -56 -68 -79 -86 -46 -35 -44 -42 16 -63 46 -15 116 -14 149 3 40 21 91 90 114 154 17 49 38 212 27 212 -2 0 -31 -18 -64 -39z"/>
 <path id="neck_1" muscleGroupId="16" bodyPartId="3" muscleGroupName="Neck" d="M1387 1233 c-35 -117 -44 -157 -52 -228 l-7 -60 39 36 c47 45 73 59 112 59 40 0 70 -13 103 -44 15 -14 29 -26 31 -26 12 0 -8 108 -41 223 l-36 127 -61 0 -62 0 -26 -87z"/>
 <path id="trapezius_3" muscleGroupId="13" bodyPartId="3" muscleGroupName="Trapezius" d="M1340 1289 c-19 -10 -53 -20 -75 -24 -79 -13 -80 -15 -26 -41 41 -18 56 -32 70 -63 l18 -40 26 92 c14 50 25 92 24 93 -1 0 -18 -7 -37 -17z"/>
 <path id="trapezius_4" muscleGroupId="13" bodyPartId="3" muscleGroupName="Trapezius" d="M1570 1303 c1 -5 11 -43 23 -85 22 -75 37 -106 37 -78 0 28 51 80 90 91 22 7 38 14 36 16 -2 3 -34 11 -71 18 -37 8 -78 22 -91 30 -13 9 -24 12 -24 8z"/>
 <path d="M1746 1214 c-81 -29 -106 -76 -106 -200 0 -45 4 -85 9 -89 5 -3 15 -22 22 -43 6 -20 22 -50 35 -65 32 -38 40 -74 22 -95 -8 -9 -20 -42 -27 -72 l-11 -55 -145 -63 c-163 -72 -188 -75 -222 -24 -26 39 -62 133 -65 168 -2 14 -8 30 -15 36 -21 17 -15 62 16 109 19 28 34 68 40 109 25 151 4 233 -69 270 -23 12 -43 20 -45 18 -1 -2 1 -32 7 -68 5 -36 8 -148 6 -250 -6 -371 43 -554 166 -617 45 -23 173 -22 217 3 67 37 105 73 134 126 l30 53 7 250 c6 233 11 285 38 385 6 21 14 59 19 84 10 53 5 55 -63 30z"/>
 <path d="M1445 1006 c-89 -40 -157 -164 -158 -286 0 -74 45 -205 76 -222 14 -7 37 -1 95 25 42 20 107 49 143 65 58 26 67 34 73 62 10 52 7 90 -11 169 -14 61 -25 82 -62 124 -39 43 -93 78 -118 77 -4 -1 -21 -7 -38 -14z"/>
 </g>

</svg>